SplineFontDB: 3.2
FontName: FanBopomofo
FullName: FanBopomofo
FamilyName: FanBopomofo
Weight: Regular
Copyright: Copyright (c) fANhAN iNSiDE 2021, 
UComments: "2021-6-28: Created with FontForge (http://fontforge.org)"
Version: 001.000
ItalicAngle: 0
UnderlinePosition: -102.4
UnderlineWidth: 51.2
Ascent: 819
Descent: 205
InvalidEm: 0
LayerCount: 2
Layer: 0 0 "Back" 1
Layer: 1 0 "Fore" 0
XUID: [1021 991 -1287261736 1563]
OS2Version: 0
OS2_WeightWidthSlopeOnly: 0
OS2_UseTypoMetrics: 1
CreationTime: 1624819043
ModificationTime: 1624820754
OS2TypoAscent: 0
OS2TypoAOffset: 1
OS2TypoDescent: 0
OS2TypoDOffset: 1
OS2TypoLinegap: 0
OS2WinAscent: 0
OS2WinAOffset: 1
OS2WinDescent: 0
OS2WinDOffset: 1
HheadAscent: 0
HheadAOffset: 1
HheadDescent: 0
HheadDOffset: 1
OS2Vendor: 'PfEd'
MarkAttachClasses: 1
DEI: 91125
Encoding: ISO8859-1
UnicodeInterp: none
NameList: AGL For New Fonts
DisplaySize: -48
AntiAlias: 1
FitToEm: 0
WinInfo: 0 38 14
BeginPrivate: 0
EndPrivate
BeginChars: 256 30

StartChar: b
Encoding: 98 98 0
Width: 552
Flags: HW
LayerCount: 2
Fore
SplineSet
480.569335938 786.5 m 1
 430.569335938 785 l 1
 431.235351562 754.333007812 432.319335938 700.833007812 433.819335938 624.5 c 0
 435.319335938 548.166992188 436.485351562 482.666992188 437.319335938 428 c 0
 438.15234375 373.333007812 438.985351562 315.25 439.819335938 253.75 c 0
 440.65234375 192.25 440.985351562 144.416992188 440.819335938 110.25 c 0
 440.65234375 76.0830078125 439.735351562 58 438.069335938 56 c 2
 266.069335938 -77.5 l 2
 229.069335938 -109.166992188 179.569335938 -132 117.569335938 -146 c 1
 121.569335938 -146 l 2
 128.569335938 -146 136.15234375 -145.583007812 144.319335938 -144.75 c 0
 152.485351562 -143.916992188 159.40234375 -143.083007812 165.069335938 -142.25 c 0
 170.735351562 -141.416992188 178.40234375 -140.166992188 188.069335938 -138.5 c 0
 197.735351562 -136.833007812 204.90234375 -135.666992188 209.569335938 -135 c 0
 217.569335938 -134.333007812 240.985351562 -131.333007812 279.819335938 -126 c 0
 318.65234375 -120.666992188 348.569335938 -118 369.569335938 -118 c 2
 374.069335938 -118 l 1
 378.569335938 -118 l 2
 387.235351562 -118 395.819335938 -119.333007812 404.319335938 -122 c 0
 412.819335938 -124.666992188 422.569335938 -128.583007812 433.569335938 -133.75 c 0
 444.569335938 -138.916992188 452.40234375 -142.333007812 457.069335938 -144 c 0
 461.735351562 -146.666992188 465.735351562 -148 469.069335938 -148 c 0
 481.069335938 -148 490.90234375 -135.666992188 498.569335938 -111 c 0
 499.569335938 -103 497.819335938 -92 493.319335938 -78 c 0
 488.819335938 -64 486.235351562 -54.6669921875 485.569335938 -50 c 2
 475.069335938 67 l 1
 476.069335938 226.666992188 477.90234375 466.5 480.569335938 786.5 c 1
509.569335938 819 m 0
 511.235351562 819 512.40234375 801.75 513.069335938 767.25 c 0
 513.735351562 732.75 513.819335938 685 513.319335938 624 c 0
 512.819335938 563 512.235351562 502.833007812 511.569335938 443.5 c 0
 510.90234375 384.166992188 510.15234375 317.083007812 509.319335938 242.25 c 0
 508.485351562 167.416992188 507.90234375 111.333007812 507.569335938 74 c 0
 508.235351562 61 509.65234375 42.4169921875 511.819335938 18.25 c 0
 513.985351562 -5.9169921875 515.235351562 -20.8330078125 515.569335938 -26.5 c 0
 515.569335938 -35.8330078125 518.65234375 -50.1669921875 524.819335938 -69.5 c 0
 530.985351562 -88.8330078125 533.235351562 -104 531.569335938 -115 c 0
 525.569335938 -143.666992188 512.90234375 -164.166992188 493.569335938 -176.5 c 0
 486.569335938 -179.5 479.735351562 -181 473.069335938 -181 c 0
 468.40234375 -181 463.235351562 -180.25 457.569335938 -178.75 c 0
 451.90234375 -177.25 447.319335938 -175.75 443.819335938 -174.25 c 0
 440.319335938 -172.75 435.15234375 -170.416992188 428.319335938 -167.25 c 0
 421.485351562 -164.083007812 417.069335938 -162 415.069335938 -161 c 0
 402.069335938 -154 386.235351562 -150.5 367.569335938 -150.5 c 0
 360.235351562 -150.5 344.90234375 -151.666992188 321.569335938 -154 c 0
 239.569335938 -164.666992188 193.90234375 -170.833007812 184.569335938 -172.5 c 0
 162.235351562 -176.5 142.235351562 -178.5 124.569335938 -178.5 c 0
 89.90234375 -178.5 59.2353515625 -171.5 32.5693359375 -157.5 c 0
 23.5693359375 -152.5 19.40234375 -144.416992188 20.0693359375 -133.25 c 0
 20.7353515625 -122.083007812 24.90234375 -113.666992188 32.5693359375 -108 c 0
 37.90234375 -105.333007812 43.7353515625 -104 50.0693359375 -104 c 0
 56.40234375 -104 65.7353515625 -105.666992188 78.0693359375 -109 c 0
 90.40234375 -112.333007812 99.5693359375 -114 105.569335938 -114 c 0
 149.569335938 -106 188.569335938 -91 222.569335938 -69 c 1
 410.069335938 74.5 l 1
 398.569335938 783.5 l 1
 398.319335938 788 l 1
 398.069335938 793.25 l 1
 398.069335938 798 l 2
 398.069335938 800.333007812 398.235351562 802 398.569335938 803 c 0
 398.90234375 804 399.40234375 805.416992188 400.069335938 807.25 c 0
 400.735351562 809.083007812 401.485351562 810.5 402.319335938 811.5 c 0
 403.15234375 812.5 404.319335938 813.5 405.819335938 814.5 c 0
 407.319335938 815.5 408.90234375 816.166992188 410.569335938 816.5 c 0
 421.569335938 817.166992188 439.40234375 817.666992188 464.069335938 818 c 0
 488.735351562 818.333007812 503.90234375 818.666992188 509.569335938 819 c 2
 509.569335938 819 l 0
EndSplineSet
EndChar

StartChar: p
Encoding: 112 112 1
Width: 316
Flags: HW
LayerCount: 2
Fore
SplineSet
261.5 472.5 m 1
 53 471 l 1
 54.5 83.5 l 1
 258 87 l 1
 261.5 472.5 l 1
296 505.5 m 1
 291 54 l 1
 21.5 49 l 1
 20 504 l 1
 296 505.5 l 1
EndSplineSet
EndChar

StartChar: m
Encoding: 109 109 2
Width: 944
Flags: HW
LayerCount: 2
Fore
SplineSet
225.35546875 648 m 0
 228.022460938 648 232.022460938 646.833007812 237.35546875 644.5 c 0
 242.688476562 642.166992188 246.688476562 641 249.35546875 641 c 0
 252.35546875 641 255.188476562 642.166992188 257.85546875 644.5 c 1
 257.85546875 644.5 l 1
 260.522460938 638.833007812 256.772460938 633 246.60546875 627 c 0
 236.438476562 621 227.35546875 617.833007812 219.35546875 617.5 c 0
 218.35546875 617.5 217.522460938 617.666992188 216.85546875 618 c 0
 207.188476562 619.333007812 203.522460938 623.166992188 205.85546875 629.5 c 0
 208.188476562 636.5 214.688476562 642.666992188 225.35546875 648 c 0
115.85546875 643 m 0
 117.522460938 643 119.10546875 642.666992188 120.60546875 642 c 0
 122.10546875 641.333007812 123.438476562 640.666992188 124.60546875 640 c 0
 125.772460938 639.333007812 127.188476562 638.333007812 128.85546875 637 c 0
 130.522460938 635.666992188 131.688476562 634.666992188 132.35546875 634 c 0
 133.022460938 634 133.688476562 633.833007812 134.35546875 633.5 c 0
 146.022460938 631.833007812 147.522460938 628.166992188 138.85546875 622.5 c 0
 129.85546875 616.833007812 121.022460938 614 112.35546875 614 c 2
 111.35546875 614 l 2
 100.35546875 616.333007812 95.85546875 621.166992188 97.85546875 628.5 c 0
 99.85546875 635.833007812 105.85546875 640.666992188 115.85546875 643 c 0
261.85546875 782.5 m 1
 240.188476562 774.5 216.35546875 770.5 190.35546875 770.5 c 2
 176.35546875 770.5 l 2
 175.688476562 770.5 174.688476562 770.416992188 173.35546875 770.25 c 0
 172.022460938 770.083007812 170.85546875 770 169.85546875 770 c 0
 165.188476562 770 157.772460938 771.333007812 147.60546875 774 c 0
 137.438476562 776.666992188 130.188476562 778 125.85546875 778 c 0
 115.522460938 778 108.85546875 772.666992188 105.85546875 762 c 1
 101.188476562 756 100.022460938 753 102.35546875 753 c 0
 103.35546875 753 105.688476562 753.416992188 109.35546875 754.25 c 0
 113.022460938 755.083007812 116.022460938 755.5 118.35546875 755.5 c 0
 119.35546875 755.5 120.85546875 755.166992188 122.85546875 754.5 c 0
 130.85546875 752.166992188 139.188476562 748.083007812 147.85546875 742.25 c 0
 156.522460938 736.416992188 163.10546875 731.416992188 167.60546875 727.25 c 0
 172.10546875 723.083007812 178.85546875 716.5 187.85546875 707.5 c 1
 188.188476562 708.166992188 191.10546875 711.5 196.60546875 717.5 c 0
 202.10546875 723.5 205.522460938 727.25 206.85546875 728.75 c 0
 208.188476562 730.25 211.272460938 733.25 216.10546875 737.75 c 0
 220.938476562 742.25 224.85546875 745.333007812 227.85546875 747 c 0
 230.85546875 748.666992188 234.60546875 750.583007812 239.10546875 752.75 c 0
 243.60546875 754.916992188 248.188476562 756.333007812 252.85546875 757 c 0
 257.85546875 757 262.35546875 756 266.35546875 754 c 0
 270.35546875 752 273.938476562 748.916992188 277.10546875 744.75 c 0
 280.272460938 740.583007812 282.772460938 737.083007812 284.60546875 734.25 c 0
 286.438476562 731.416992188 288.85546875 726.916992188 291.85546875 720.75 c 0
 294.85546875 714.583007812 296.85546875 710.666992188 297.85546875 709 c 0
 299.522460938 705.333007812 302.522460938 698.666992188 306.85546875 689 c 0
 311.188476562 679.333007812 314.35546875 671.916992188 316.35546875 666.75 c 0
 318.35546875 661.583007812 320.688476562 654.916992188 323.35546875 646.75 c 0
 326.022460938 638.583007812 327.772460938 630.833007812 328.60546875 623.5 c 0
 329.438476562 616.166992188 329.35546875 608.833007812 328.35546875 601.5 c 0
 318.022460938 561.833007812 322.522460938 541 341.85546875 539 c 1
 339.85546875 551 337.60546875 569.25 335.10546875 593.75 c 0
 332.60546875 618.25 330.522460938 636.5 328.85546875 648.5 c 0
 324.188476562 690.166992188 301.85546875 734.833007812 261.85546875 782.5 c 1
252.85546875 740 m 1
 246.85546875 738.333007812 241.022460938 735.5 235.35546875 731.5 c 0
 229.688476562 727.5 225.272460938 723.916992188 222.10546875 720.75 c 0
 218.938476562 717.583007812 214.522460938 712.666992188 208.85546875 706 c 0
 203.188476562 699.333007812 199.188476562 694.833007812 196.85546875 692.5 c 0
 193.85546875 690.5 191.022460938 689.5 188.35546875 689.5 c 0
 182.688476562 689.5 175.10546875 694.916992188 165.60546875 705.75 c 0
 156.10546875 716.583007812 148.85546875 722.833007812 143.85546875 724.5 c 1
 136.85546875 733.5 128.188476562 738 117.85546875 738 c 0
 110.188476562 738 103.272460938 735.583007812 97.10546875 730.75 c 0
 90.9384765625 725.916992188 86.6884765625 719.5 84.35546875 711.5 c 0
 83.0224609375 706.166992188 80.5224609375 698.25 76.85546875 687.75 c 0
 73.1884765625 677.25 70.4384765625 668 68.60546875 660 c 0
 66.7724609375 652 65.85546875 644.166992188 65.85546875 636.5 c 2
 65.85546875 636 l 1
 70.35546875 644 l 2
 73.35546875 649.333007812 77.35546875 655 82.35546875 661 c 0
 87.35546875 667 92.1884765625 670.5 96.85546875 671.5 c 0
 101.522460938 672.166992188 104.85546875 672.5 106.85546875 672.5 c 0
 122.188476562 672.5 142.022460938 662.833007812 166.35546875 643.5 c 0
 169.688476562 638.5 172.85546875 636 175.85546875 636 c 0
 179.188476562 636 183.772460938 640.083007812 189.60546875 648.25 c 0
 195.438476562 656.416992188 199.85546875 661.5 202.85546875 663.5 c 0
 211.85546875 676.833007812 224.022460938 683.5 239.35546875 683.5 c 0
 249.688476562 683.5 258.688476562 679.833007812 266.35546875 672.5 c 0
 267.35546875 671.833007812 268.938476562 670.916992188 271.10546875 669.75 c 0
 273.272460938 668.583007812 274.772460938 667.666992188 275.60546875 667 c 0
 276.438476562 666.333007812 277.688476562 665.416992188 279.35546875 664.25 c 0
 281.022460938 663.083007812 282.188476562 662.083007812 282.85546875 661.25 c 0
 283.522460938 660.416992188 284.188476562 659.416992188 284.85546875 658.25 c 0
 285.522460938 657.083007812 285.688476562 655.916992188 285.35546875 654.75 c 0
 285.022460938 653.583007812 284.522460938 652.166992188 283.85546875 650.5 c 0
 283.188476562 648.833007812 282.022460938 647.166992188 280.35546875 645.5 c 0
 276.688476562 646.166992188 269.938476562 649.916992188 260.10546875 656.75 c 0
 250.272460938 663.583007812 242.688476562 667 237.35546875 667 c 0
 232.688476562 667 228.35546875 665.166992188 224.35546875 661.5 c 0
 208.35546875 647.5 195.522460938 631.833007812 185.85546875 614.5 c 0
 185.522460938 612.833007812 185.938476562 610.75 187.10546875 608.25 c 0
 188.272460938 605.75 189.772460938 602.916992188 191.60546875 599.75 c 0
 193.438476562 596.583007812 194.688476562 594.166992188 195.35546875 592.5 c 0
 199.022460938 585.833007812 200.188476562 580.75 198.85546875 577.25 c 0
 197.522460938 573.75 194.688476562 568.833007812 190.35546875 562.5 c 0
 186.022460938 556.166992188 183.522460938 551 182.85546875 547 c 1
 159.35546875 578 l 1
 164.022460938 592 167.188476562 602.333007812 168.85546875 609 c 0
 170.85546875 614 169.938476562 618.583007812 166.10546875 622.75 c 0
 162.272460938 626.916992188 156.938476562 631 150.10546875 635 c 0
 143.272460938 639 138.85546875 642.166992188 136.85546875 644.5 c 0
 128.522460938 651.166992188 119.85546875 654.5 110.85546875 654.5 c 0
 95.85546875 654.5 86.1884765625 646.5 81.85546875 630.5 c 0
 81.5224609375 625.5 81.10546875 621.666992188 80.60546875 619 c 0
 80.10546875 616.333007812 78.85546875 613.583007812 76.85546875 610.75 c 0
 74.85546875 607.916992188 72.0224609375 606.5 68.35546875 606.5 c 0
 67.0224609375 606.5 66.0224609375 606.666992188 65.35546875 607 c 1
 65.35546875 607 l 1
 67.35546875 568.333007812 71.6884765625 541 78.35546875 525 c 0
 79.6884765625 519 82.60546875 514.25 87.10546875 510.75 c 0
 91.60546875 507.25 95.6884765625 505 99.35546875 504 c 0
 103.022460938 503 108.772460938 501.916992188 116.60546875 500.75 c 0
 124.438476562 499.583007812 129.688476562 498.666992188 132.35546875 498 c 0
 135.688476562 497 139.022460938 496.5 142.35546875 496.5 c 0
 149.022460938 496.5 154.85546875 498.75 159.85546875 503.25 c 0
 164.85546875 507.75 169.938476562 513.833007812 175.10546875 521.5 c 0
 180.272460938 529.166992188 184.188476562 534.333007812 186.85546875 537 c 1
 190.188476562 535 197.85546875 528.416992188 209.85546875 517.25 c 0
 221.85546875 506.083007812 232.688476562 499.5 242.35546875 497.5 c 0
 244.35546875 496.833007812 247.188476562 496.5 250.85546875 496.5 c 0
 258.188476562 496.5 265.188476562 498.75 271.85546875 503.25 c 0
 278.522460938 507.75 285.60546875 513.833007812 293.10546875 521.5 c 0
 300.60546875 529.166992188 306.35546875 534.333007812 310.35546875 537 c 0
 310.35546875 538.333007812 309.188476562 546 306.85546875 560 c 0
 304.522460938 574 305.188476562 583 308.85546875 587 c 0
 309.85546875 590.333007812 310.60546875 593.833007812 311.10546875 597.5 c 0
 311.60546875 601.166992188 312.022460938 604.5 312.35546875 607.5 c 0
 312.688476562 610.5 312.522460938 614.083007812 311.85546875 618.25 c 0
 311.188476562 622.416992188 310.772460938 625.75 310.60546875 628.25 c 0
 310.438476562 630.75 309.688476562 634.166992188 308.35546875 638.5 c 0
 307.022460938 642.833007812 306.10546875 646 305.60546875 648 c 0
 305.10546875 650 303.938476562 653.416992188 302.10546875 658.25 c 0
 300.272460938 663.083007812 299.022460938 666.25 298.35546875 667.75 c 0
 297.688476562 669.25 296.272460938 672.583007812 294.10546875 677.75 c 0
 291.938476562 682.916992188 290.688476562 686 290.35546875 687 c 0
 288.35546875 690.333007812 285.35546875 696.666992188 281.35546875 706 c 0
 277.35546875 715.333007812 273.188476562 722.916992188 268.85546875 728.75 c 0
 264.522460938 734.583007812 259.188476562 738.333007812 252.85546875 740 c 1
173.85546875 354.5 m 1
 187.188476562 317.833007812 199.938476562 276.833007812 212.10546875 231.5 c 0
 224.272460938 186.166992188 233.60546875 149.25 240.10546875 120.75 c 0
 246.60546875 92.25 251.022460938 76.1669921875 253.35546875 72.5 c 0
 255.688476562 68.5 260.85546875 63.9169921875 268.85546875 58.75 c 0
 276.85546875 53.5830078125 286.60546875 47.6669921875 298.10546875 41 c 0
 309.60546875 34.3330078125 319.022460938 28 326.35546875 22 c 1
 320.022460938 50.6669921875 309.772460938 85.0830078125 295.60546875 125.25 c 0
 281.438476562 165.416992188 263.022460938 208.083007812 240.35546875 253.25 c 0
 217.688476562 298.416992188 195.522460938 332.166992188 173.85546875 354.5 c 1
425.35546875 487 m 1
 407.688476562 467 383.688476562 446.833007812 353.35546875 426.5 c 0
 323.022460938 406.166992188 288.688476562 389.666992188 250.35546875 377 c 1
 287.688476562 342.666992188 314.688476562 318.166992188 331.35546875 303.5 c 0
 348.022460938 288.833007812 372.772460938 267.833007812 405.60546875 240.5 c 0
 438.438476562 213.166992188 469.10546875 190.25 497.60546875 171.75 c 0
 526.10546875 153.25 555.35546875 136.666992188 585.35546875 122 c 0
 597.688476562 116 609.85546875 109.833007812 621.85546875 103.5 c 0
 633.85546875 97.1669921875 647.022460938 89.9169921875 661.35546875 81.75 c 0
 675.688476562 73.5830078125 687.188476562 67 695.85546875 62 c 0
 704.522460938 57 717.272460938 49.25 734.10546875 38.75 c 0
 750.938476562 28.25 762.10546875 21.3330078125 767.60546875 18 c 0
 773.10546875 14.6669921875 785.85546875 6.75 805.85546875 -5.75 c 0
 825.85546875 -18.25 837.35546875 -25.5 840.35546875 -27.5 c 1
 832.35546875 -17.8330078125 810.10546875 13.5 773.60546875 66.5 c 0
 737.10546875 119.5 700.438476562 172.166992188 663.60546875 224.5 c 0
 626.772460938 276.833007812 585.522460938 329.25 539.85546875 381.75 c 0
 494.188476562 434.25 456.022460938 469.333007812 425.35546875 487 c 1
286.85546875 8 m 1
 281.85546875 -17 272.438476562 -42.25 258.60546875 -67.75 c 0
 244.772460938 -93.25 237.188476562 -107.833007812 235.85546875 -111.5 c 1
 238.35546875 -111.5 l 2
 242.688476562 -111.5 249.522460938 -112.583007812 258.85546875 -114.75 c 0
 268.188476562 -116.916992188 275.022460938 -118 279.35546875 -118 c 0
 287.688476562 -118 293.688476562 -114.833007812 297.35546875 -108.5 c 0
 303.022460938 -103.166992188 308.188476562 -96.75 312.85546875 -89.25 c 0
 317.522460938 -81.75 321.022460938 -75.1669921875 323.35546875 -69.5 c 0
 325.688476562 -63.8330078125 328.60546875 -56.1669921875 332.10546875 -46.5 c 0
 335.60546875 -36.8330078125 338.35546875 -29.6669921875 340.35546875 -25 c 1
 332.688476562 -22 322.272460938 -16 309.10546875 -7 c 0
 295.938476562 2 288.522460938 7 286.85546875 8 c 1
324.35546875 528 m 1
 293.35546875 499.5 l 2
 282.022460938 486.5 267.688476562 480 250.35546875 480 c 0
 240.022460938 480 230.522460938 482.833007812 221.85546875 488.5 c 0
 217.522460938 488.5 211.772460938 492.166992188 204.60546875 499.5 c 0
 197.438476562 506.833007812 192.688476562 510.5 190.35546875 510.5 c 0
 188.022460938 510.5 186.35546875 508.5 185.35546875 504.5 c 0
 177.022460938 489.166992188 161.35546875 481.5 138.35546875 481.5 c 0
 129.688476562 481.5 120.35546875 482.666992188 110.35546875 485 c 0
 109.35546875 485.666992188 108.688476562 486.166992188 108.35546875 486.5 c 0
 108.022460938 486.5 108.522460938 485.583007812 109.85546875 483.75 c 0
 111.188476562 481.916992188 113.35546875 479.333007812 116.35546875 476 c 0
 119.35546875 472.666992188 121.938476562 469.833007812 124.10546875 467.5 c 0
 126.272460938 465.166992188 129.022460938 462 132.35546875 458 c 2
 137.85546875 452.5 l 2
 177.85546875 409.833007812 213.60546875 363.25 245.10546875 312.75 c 0
 276.60546875 262.25 300.35546875 216.666992188 316.35546875 176 c 0
 332.35546875 135.333007812 344.188476562 100.083007812 351.85546875 70.25 c 0
 359.522460938 40.4169921875 362.35546875 19.5 360.35546875 7.5 c 1
 364.688476562 6.5 374.35546875 2.75 389.35546875 -3.75 c 0
 404.35546875 -10.25 414.688476562 -13.5 420.35546875 -13.5 c 0
 426.688476562 -13.5 430.688476562 -11 432.35546875 -6 c 0
 446.688476562 21 455.522460938 54.8330078125 458.85546875 95.5 c 0
 458.522460938 102.5 460.10546875 108 463.60546875 112 c 0
 467.10546875 116 471.35546875 118 476.35546875 118 c 0
 481.688476562 118 486.522460938 116.083007812 490.85546875 112.25 c 0
 495.188476562 108.416992188 497.522460938 103.333007812 497.85546875 97 c 0
 498.188476562 96.3330078125 498.85546875 96 499.85546875 96 c 0
 501.188476562 96 504.272460938 97.1669921875 509.10546875 99.5 c 0
 513.938476562 101.833007812 517.688476562 103 520.35546875 103 c 0
 525.022460938 103 528.35546875 100.5 530.35546875 95.5 c 0
 532.688476562 88.8330078125 539.35546875 66.9169921875 550.35546875 29.75 c 0
 561.35546875 -7.4169921875 571.85546875 -39.3330078125 581.85546875 -66 c 0
 591.85546875 -92.6669921875 601.35546875 -110.833007812 610.35546875 -120.5 c 0
 618.35546875 -129.166992188 630.60546875 -136.083007812 647.10546875 -141.25 c 0
 663.60546875 -146.416992188 681.188476562 -149 699.85546875 -149 c 0
 713.85546875 -149 726.85546875 -147.5 738.85546875 -144.5 c 0
 747.85546875 -142.166992188 760.272460938 -138.333007812 776.10546875 -133 c 0
 791.938476562 -127.666992188 802.35546875 -124.166992188 807.35546875 -122.5 c 1
 800.35546875 -108.5 792.10546875 -94.3330078125 782.60546875 -80 c 0
 773.10546875 -65.6669921875 761.60546875 -49.5830078125 748.10546875 -31.75 c 0
 734.60546875 -13.9169921875 724.85546875 -0.5 718.85546875 8.5 c 1
 700.188476562 20.5 679.938476562 32.6669921875 658.10546875 45 c 0
 636.272460938 57.3330078125 611.85546875 70.6669921875 584.85546875 85 c 0
 557.85546875 99.3330078125 537.188476562 110.5 522.85546875 118.5 c 0
 506.188476562 127.5 488.938476562 137.916992188 471.10546875 149.75 c 0
 453.272460938 161.583007812 438.10546875 172 425.60546875 181 c 0
 413.10546875 190 396.938476562 202.916992188 377.10546875 219.75 c 0
 357.272460938 236.583007812 343.35546875 248.5 335.35546875 255.5 c 0
 327.35546875 262.5 312.022460938 276.25 289.35546875 296.75 c 0
 266.688476562 317.25 252.688476562 329.833007812 247.35546875 334.5 c 2
 239.85546875 342 l 2
 205.522460938 377 196.85546875 395.833007812 213.85546875 398.5 c 0
 242.85546875 403.833007812 276.35546875 418.083007812 314.35546875 441.25 c 0
 352.35546875 464.416992188 376.522460938 483 386.85546875 497 c 0
 391.188476562 500.333007812 393.938476562 503.166992188 395.10546875 505.5 c 0
 396.272460938 507.833007812 395.60546875 509.75 393.10546875 511.25 c 0
 390.60546875 512.75 388.10546875 513.916992188 385.60546875 514.75 c 0
 383.10546875 515.583007812 379.35546875 516.666992188 374.35546875 518 c 0
 372.35546875 518.333007812 369.85546875 518.916992188 366.85546875 519.75 c 0
 363.85546875 520.583007812 361.35546875 521.416992188 359.35546875 522.25 c 0
 357.35546875 523.083007812 355.688476562 524 354.35546875 525 c 0
 345.688476562 520.666992188 339.85546875 518.5 336.85546875 518.5 c 0
 331.85546875 518.5 327.688476562 521.666992188 324.35546875 528 c 1
266.85546875 818.5 m 1
 293.522460938 802.5 315.522460938 776.333007812 332.85546875 740 c 0
 350.188476562 703.666992188 360.522460938 669.5 363.85546875 637.5 c 0
 365.188476562 631.5 366.688476562 618.166992188 368.35546875 597.5 c 0
 370.022460938 576.833007812 372.688476562 561.833007812 376.35546875 552.5 c 1
 404.35546875 545.166992188 430.022460938 531.166992188 453.35546875 510.5 c 1
 475.688476562 494.5 500.85546875 471.75 528.85546875 442.25 c 0
 556.85546875 412.75 582.688476562 383.583007812 606.35546875 354.75 c 0
 630.022460938 325.916992188 658.688476562 288.5 692.35546875 242.5 c 0
 726.022460938 196.5 752.438476562 159.666992188 771.60546875 132 c 0
 790.772460938 104.333007812 817.438476562 65.5 851.60546875 15.5 c 0
 885.772460938 -34.5 908.188476562 -67.1669921875 918.85546875 -82.5 c 0
 924.85546875 -89.8330078125 926.022460938 -96.4169921875 922.35546875 -102.25 c 0
 918.688476562 -108.083007812 913.188476562 -111 905.85546875 -111 c 0
 897.522460938 -111 892.022460938 -106.5 889.35546875 -97.5 c 1
 792.85546875 -37 l 1
 792.85546875 -37 l 1
 819.85546875 -71 838.35546875 -102.166992188 848.35546875 -130.5 c 0
 850.688476562 -136.5 850.272460938 -140.833007812 847.10546875 -143.5 c 0
 843.938476562 -146.166992188 836.188476562 -149.166992188 823.85546875 -152.5 c 0
 811.522460938 -155.833007812 801.35546875 -159.166992188 793.35546875 -162.5 c 0
 765.35546875 -174.833007812 733.688476562 -181 698.35546875 -181 c 0
 671.022460938 -181 646.438476562 -176.916992188 624.60546875 -168.75 c 0
 602.772460938 -160.583007812 587.022460938 -148.833007812 577.35546875 -133.5 c 0
 567.35546875 -117.166992188 553.938476562 -85.25 537.10546875 -37.75 c 0
 520.272460938 9.75 510.022460938 37.1669921875 506.35546875 44.5 c 0
 505.022460938 47.5 501.522460938 49 495.85546875 49 c 0
 489.522460938 49 486.188476562 47.3330078125 485.85546875 44 c 0
 471.188476562 -9.3330078125 457.688476562 -40.1669921875 445.35546875 -48.5 c 0
 442.688476562 -50.5 438.85546875 -51.5 433.85546875 -51.5 c 0
 428.188476562 -51.5 419.688476562 -49.5 408.35546875 -45.5 c 0
 397.022460938 -41.5 390.022460938 -39.1669921875 387.35546875 -38.5 c 1
 377.688476562 -68.5 363.188476562 -100.666992188 343.85546875 -135 c 0
 339.85546875 -145 330.10546875 -152.666992188 314.60546875 -158 c 0
 299.10546875 -163.333007812 281.022460938 -166 260.35546875 -166 c 0
 242.35546875 -166 225.35546875 -164 209.35546875 -160 c 1
 212.35546875 -154.333007812 213.022460938 -151.5 211.35546875 -151.5 c 2
 208.35546875 -152.5 l 1
 203.35546875 -155 l 2
 201.35546875 -156 199.688476562 -156.666992188 198.35546875 -157 c 0
 191.022460938 -158 180.022460938 -158.5 165.35546875 -158.5 c 0
 156.688476562 -158.5 144.438476562 -158.166992188 128.60546875 -157.5 c 0
 112.772460938 -156.833007812 102.35546875 -156.5 97.35546875 -156.5 c 0
 95.35546875 -155.833007812 90.1884765625 -155.5 81.85546875 -155.5 c 0
 75.85546875 -155.5 71.5224609375 -155.333007812 68.85546875 -155 c 0
 59.85546875 -154.333007812 57.35546875 -151.833007812 61.35546875 -147.5 c 1
 61.35546875 -147.5 l 1
 55.6884765625 -148.5 49.2724609375 -152.25 42.10546875 -158.75 c 0
 34.9384765625 -165.25 29.0224609375 -172.166992188 24.35546875 -179.5 c 1
 19.6884765625 -177.166992188 18.7724609375 -169 21.60546875 -155 c 0
 24.4384765625 -141 29.5224609375 -131.666992188 36.85546875 -127 c 0
 48.5224609375 -120 71.5224609375 -116.5 105.85546875 -116.5 c 2
 115.35546875 -116.5 l 2
 133.35546875 -116.5 147.772460938 -115.583007812 158.60546875 -113.75 c 0
 169.438476562 -111.916992188 177.188476562 -107.833007812 181.85546875 -101.5 c 0
 193.85546875 -85.1669921875 206.438476562 -58.5830078125 219.60546875 -21.75 c 0
 232.772460938 15.0830078125 234.85546875 37.8330078125 225.85546875 46.5 c 1
 223.522460938 55.1669921875 216.772460938 80.4169921875 205.60546875 122.25 c 0
 194.438476562 164.083007812 184.10546875 202.166992188 174.60546875 236.5 c 0
 165.10546875 270.833007812 154.438476562 307.25 142.60546875 345.75 c 0
 130.772460938 384.25 121.022460938 412.166992188 113.35546875 429.5 c 1
 85.6884765625 458.5 66.0224609375 483.416992188 54.35546875 504.25 c 0
 42.6884765625 525.083007812 35.60546875 547.583007812 33.10546875 571.75 c 0
 30.60546875 595.916992188 30.6884765625 624.833007812 33.35546875 658.5 c 0
 36.0224609375 702.5 56.6884765625 752.166992188 95.35546875 807.5 c 0
 100.688476562 811.166992188 107.188476562 813 114.85546875 813 c 0
 120.85546875 813 130.272460938 811.333007812 143.10546875 808 c 0
 155.938476562 804.666992188 165.522460938 803 171.85546875 803 c 0
 175.188476562 803 177.688476562 803.166992188 179.35546875 803.5 c 0
 182.022460938 803.166992188 186.022460938 803 191.35546875 803 c 0
 217.688476562 803 242.85546875 808.166992188 266.85546875 818.5 c 1
EndSplineSet
EndChar

StartChar: f
Encoding: 102 102 3
Width: 1005
Flags: HW
LayerCount: 2
Fore
SplineSet
107.5 321.5 m 4
 118.166992188 321.5 129.666992188 316.833007812 142 307.5 c 5
 131 297.166992188 118 291.166992188 103 289.5 c 4
 100.666992188 289.166992188 98.6669921875 289 97 289 c 4
 86 289 79.8330078125 292.666992188 78.5 300 c 4
 76.8330078125 309 82.8330078125 315.666992188 96.5 320 c 4
 99.8330078125 321 103.5 321.5 107.5 321.5 c 4
117.5 333.5 m 6
 115.5 333.5 l 6
 86.8330078125 332.833007812 68.1669921875 321.666992188 59.5 300 c 5
 57.8330078125 284.333007812 64.6669921875 276 80 275 c 5
 97 279.666992188 113.833007812 282 130.5 282 c 4
 167.833007812 282 204 270.166992188 239 246.5 c 5
 274.666992188 230.166992188 312.666992188 222 353 222 c 4
 366.333007812 222 380 223 394 225 c 4
 449.333007812 232 498.666992188 239.666992188 542 248 c 4
 563.666992188 252.333007812 586.333007812 254.5 610 254.5 c 4
 633.666992188 254.5 658.333007812 252.333007812 684 248 c 4
 735 239.666992188 779.166992188 235.5 816.5 235.5 c 4
 854.166992188 235.5 892.5 237.5 931.5 241.5 c 5
 870.833007812 244.833007812 826.5 248.5 798.5 252.5 c 4
 770.833007812 256.5 735.833007812 265.5 693.5 279.5 c 4
 665.5 288.5 635.5 293 603.5 293 c 4
 586.833007812 293 569.666992188 291.833007812 552 289.5 c 4
 500.333007812 282.166992188 451 273.833007812 404 264.5 c 4
 385.333007812 260.833007812 367.333007812 259 350 259 c 4
 314 259 281 266.833007812 251 282.5 c 4
 191 316.5 146.5 333.5 117.5 333.5 c 6
149.5 455.5 m 6
 150.5 455.5 l 6
 167.833007812 454.833007812 177.5 446.333007812 179.5 430 c 4
 181.5 413.666992188 166.666992188 393.166992188 135 368.5 c 5
 173 354.833007812 209.166992188 337.666992188 243.5 317 c 4
 276.833007812 300 314.666992188 291.5 357 291.5 c 4
 388.333007812 291.5 421.833007812 296 457.5 305 c 4
 513.5 317 562.833007812 323 605.5 323 c 4
 647.833007812 323 683.666992188 317 713 305 c 4
 771.666992188 281 836.5 268.666992188 907.5 268 c 5
 940.833007812 262.333007812 966.666992188 251.166992188 985 234.5 c 5
 985 223.166992188 951.166992188 216.833007812 883.5 215.5 c 4
 870.166992188 214.166992188 855.166992188 213.5 838.5 213.5 c 4
 801.833007812 213.5 757.5 216.5 705.5 222.5 c 4
 684.5 224.833007812 663.333007812 226 642 226 c 4
 586 226 528.166992188 217.666992188 468.5 201 c 5
 420.166992188 193 378.166992188 189 342.5 189 c 4
 288.833007812 189 249.666992188 198 225 216 c 4
 196.333007812 237 165.666992188 247.5 133 247.5 c 4
 119.333007812 247.5 105.166992188 245.5 90.5 241.5 c 5
 43.5 244.833007812 20 260.5 20 288.5 c 4
 20 316.166992188 36 339.166992188 68 357.5 c 5
 28 400.5 20 429.666992188 44 445 c 4
 47 446 50 446.5 53 446.5 c 4
 72.6669921875 446.5 88.8330078125 423.333007812 101.5 377 c 5
 116.166992188 429.333007812 132.166992188 455.5 149.5 455.5 c 6
EndSplineSet
EndChar

StartChar: d
Encoding: 100 100 4
Width: 1458
Flags: HW
LayerCount: 2
Fore
SplineSet
729.5 535.5 m 5
 599.5 511.166992188 513.333007812 499 471 499 c 6
 419 501 l 5
 419 501 l 5
 419 468.333007812 434.666992188 451.5 466 450.5 c 4
 485.333007812 450.5 574.333007812 456.833007812 733 469.5 c 4
 738.333007812 470.5 743.5 471 748.5 471 c 4
 781.166992188 471 813.166992188 450.333007812 844.5 409 c 5
 565.166992188 400.666992188 325.666992188 387.833007812 126 370.5 c 5
 92.3330078125 357.5 75.5 317 75.5 249 c 4
 75.5 209.666992188 103.833007812 190 160.5 190 c 5
 201.5 184.666992188 270.083007812 180.5 366.25 177.5 c 4
 462.416992188 174.5 557 173 650 173 c 4
 708.333007812 173 833.833007812 186.833007812 1026.5 214.5 c 4
 1088.83300781 222.5 1142.16699219 227.666992188 1186.5 230 c 4
 1232.5 230 1297.83300781 222.5 1382.5 207.5 c 5
 1382.5 419.5 l 5
 1328.83300781 412.5 1277.33300781 409 1228 409 c 4
 1111 409 1012 429.833007812 931 471.5 c 4
 847.333007812 514.166992188 780.166992188 535.5 729.5 535.5 c 5
750.5 586 m 5
 806.166992188 586 875.666992188 564.666992188 959 522 c 4
 1026.66699219 487 1097.16699219 469.5 1170.5 469.5 c 4
 1186.16699219 469.5 1200.16699219 470.166992188 1212.5 471.5 c 4
 1271.83300781 471.5 1347 475 1438 482 c 5
 1438 150 l 5
 1322 167.666992188 1237 176.5 1183 176.5 c 4
 1125.33300781 176.5 996.833007812 160.833007812 797.5 129.5 c 4
 768.166992188 124.5 721.833007812 121 658.5 119 c 4
 516.5 119 388.25 122.666992188 273.75 130 c 4
 159.25 137.333007812 86.8330078125 147.5 56.5 160.5 c 5
 32.1669921875 182.833007812 20 215.833007812 20 259.5 c 4
 20 321.5 36.8330078125 371.333007812 70.5 409 c 4
 76.8330078125 412.333007812 108.666992188 417 166 423 c 4
 173 423.666992188 207.666992188 424.833007812 270 426.5 c 4
 332.333007812 428.166992188 371 429.333007812 386 430 c 5
 374.333007812 440.666992188 368.5 454.5 368.5 471.5 c 4
 368.5 517.833007812 381.833007812 546.166992188 408.5 556.5 c 5
 436.833007812 549.5 459.333007812 546 476 546 c 4
 512.333007812 546 603.833007812 559.333007812 750.5 586 c 5
EndSplineSet
EndChar

StartChar: t
Encoding: 116 116 5
Width: 519
Flags: HW
LayerCount: 2
Fore
SplineSet
259.5 419 m 4
 230.5 419 200 412.583007812 168 399.75 c 4
 136 386.916992188 111 371.333007812 93 353 c 4
 79 339 69.5830078125 323 64.75 305 c 4
 59.9169921875 287 57.1669921875 266 56.5 242 c 5
 464.5 242 l 5
 463.833007812 265.666992188 461.083007812 286.583007812 456.25 304.75 c 4
 451.416992188 322.916992188 442 339 428 353 c 4
 410 371.333007812 384.75 386.916992188 352.25 399.75 c 4
 319.75 412.583007812 288.833007812 419 259.5 419 c 4
259.5 452 m 4
 294.166992188 452 329.083007812 444.833007812 364.25 430.5 c 4
 399.416992188 416.166992188 428.166992188 397.833007812 450.5 375.5 c 4
 464.5 361.5 475.333007812 344.916992188 483 325.75 c 4
 490.666992188 306.583007812 495.25 290 496.75 276 c 4
 498.25 262 499 245.5 499 226.5 c 6
 499 209 l 5
 20 209 l 5
 20 226.5 l 6
 20 292.5 36.8330078125 342.166992188 70.5 375.5 c 4
 92.8330078125 398.166992188 121.25 416.583007812 155.75 430.75 c 4
 190.25 444.916992188 224.833007812 452 259.5 452 c 4
EndSplineSet
EndChar

StartChar: n
Encoding: 110 110 6
Width: 1052
Flags: HW
LayerCount: 2
Fore
SplineSet
117 443.5 m 5
 140 400 l 5
 162.5 356.5 l 5
 185 400 l 5
 207.5 441.5 l 5
 228.5 400 l 5
 251 356.5 l 5
 273.5 400 l 5
 294.5 441.5 l 5
 317 400 l 5
 339.5 356.5 l 5
 362 400 l 5
 383 441.5 l 5
 405.5 400 l 5
 428 358.5 l 5
 450.5 400 l 5
 471.5 441.5 l 5
 492 400 l 5
 516.5 356.5 l 5
 539 400 l 5
 560 441.5 l 5
 581 400 l 5
 603.5 356.5 l 5
 627.5 400 l 5
 648.5 441.5 l 5
 669.5 400 l 5
 693.5 356.5 l 5
 716 400 l 5
 737 441.5 l 5
 758 400 l 5
 780.5 356.5 l 5
 804.5 400 l 5
 824 440 l 5
 846.5 400 l 5
 870.5 355 l 5
 896.5 400 l 5
 917.5 438 l 5
 938.5 401.5 l 5
 1021.5 252.5 l 5
 1032 231.5 l 5
 990.5 209 l 5
 978.5 230 l 5
 917.5 339 l 5
 893.5 292.5 l 5
 870.5 254 l 5
 850 292.5 l 5
 825.5 337.5 l 5
 803 294 l 5
 780.5 252.5 l 5
 759.5 294 l 5
 737 337.5 l 5
 714.5 294 l 5
 692 252.5 l 5
 671 294 l 5
 648.5 337.5 l 5
 626 294 l 5
 605 252.5 l 5
 582.5 294 l 5
 560 337.5 l 5
 537.5 294 l 5
 516.5 252.5 l 5
 494 294 l 5
 471.5 337.5 l 5
 449 294 l 5
 428 252.5 l 5
 405.5 294 l 5
 383 335.5 l 5
 360.5 294 l 5
 339.5 252.5 l 5
 318.5 294 l 5
 294.5 337.5 l 5
 271.5 294 l 5
 251 252.5 l 5
 230 294 l 5
 207.5 337.5 l 5
 183 294 l 5
 162.5 252.5 l 5
 141.5 294 l 5
 119 334 l 5
 74 231.5 l 5
 63.5 209 l 5
 20 230 l 5
 30.5 250.5 l 5
 96.5 398 l 5
 117 443.5 l 5
EndSplineSet
EndChar

StartChar: l
Encoding: 108 108 7
Width: 1100
Flags: HW
LayerCount: 2
Fore
SplineSet
369.0625 559 m 4
 363.395507812 559 357.729492188 553.333007812 352.0625 542 c 5
 340.0625 530.666992188 334.0625 522.5 334.0625 517.5 c 4
 337.0625 511.166992188 342.395507812 507.666992188 350.0625 507 c 6
 350.5625 507 l 6
 358.229492188 507 362.729492188 515.333007812 364.0625 532 c 4
 365.395507812 541.333007812 369.895507812 546 377.5625 546 c 4
 381.229492188 546 385.729492188 545 391.0625 543 c 5
 387.0625 553.666992188 379.729492188 559 369.0625 559 c 4
386.5625 537 m 6
 385.0625 537 l 5
 383.5625 537 l 6
 377.895507812 537 374.729492188 531.333007812 374.0625 520 c 5
 369.0625 509 l 5
 369.0625 506.5 l 5
 372.0625 506.5 l 6
 383.0625 506.5 389.395507812 514.666992188 391.0625 531 c 4
 391.0625 535 389.5625 537 386.5625 537 c 6
278.5625 523.5 m 4
 280.229492188 523.5 281.895507812 523.333007812 283.5625 523 c 6
 297.5625 521 l 6
 297.5625 518.666992188 292.895507812 517.5 283.5625 517.5 c 4
 274.229492188 517.5 267.5625 514.833007812 263.5625 509.5 c 4
 259.5625 504.166992188 257.0625 497.5 256.0625 489.5 c 5
 251.5625 489.5 l 5
 248.229492188 502.5 250.395507812 511.666992188 258.0625 517 c 4
 264.395507812 521.333007812 271.229492188 523.5 278.5625 523.5 c 4
278.0625 512.5 m 4
 287.729492188 512.5 295.395507812 510.166992188 301.0625 505.5 c 5
 294.729492188 497.166992188 284.5625 491.5 270.5625 488.5 c 4
 270.229492188 485.833007812 268.5625 484.5 265.5625 484.5 c 4
 264.895507812 484.5 264.229492188 484.666992188 263.5625 485 c 6
 263.5625 492 l 6
 263.5625 505.666992188 268.395507812 512.5 278.0625 512.5 c 4
256.0625 481 m 5
 261.0625 478.5 l 5
 256.395507812 460.166992188 277.395507812 449.333007812 324.0625 446 c 5
 315.5625 442.5 l 5
 278.5625 445.5 258.395507812 451.333007812 255.0625 460 c 4
 251.729492188 468.333007812 252.0625 475.333007812 256.0625 481 c 5
335.0625 539.5 m 5
 315.729492188 534.5 298.729492188 531 284.0625 529 c 4
 269.729492188 527 256.5625 521 244.5625 511 c 4
 232.895507812 500.666992188 218.229492188 489.833007812 200.5625 478.5 c 5
 197.895507812 472.166992188 200.729492188 464.5 209.0625 455.5 c 5
 205.729492188 444.166992188 210.895507812 437.333007812 224.5625 435 c 5
 231.229492188 436.666992188 237.5625 438.833007812 243.5625 441.5 c 4
 245.229492188 442.5 247.0625 443 249.0625 443 c 4
 253.0625 443 257.0625 440.666992188 261.0625 436 c 5
 252.0625 433 246.0625 430.166992188 243.0625 427.5 c 4
 239.729492188 425.166992188 234.0625 423.666992188 226.0625 423 c 5
 226.729492188 409.666992188 230.729492188 403 238.0625 403 c 4
 239.0625 403 240.229492188 403.166992188 241.5625 403.5 c 4
 243.895507812 402.5 246.0625 402 248.0625 402 c 4
 252.395507812 402 256.395507812 404.666992188 260.0625 410 c 4
 264.395507812 417 271.5625 420.5 281.5625 420.5 c 6
 284.5625 420.5 l 6
 296.5625 419.5 304.5625 414.166992188 308.5625 404.5 c 5
 335.229492188 420.833007812 347.729492188 444 346.0625 474 c 4
 347.729492188 487.666992188 344.895507812 496.166992188 337.5625 499.5 c 4
 329.5625 502.5 324.729492188 506.5 323.0625 511.5 c 4
 320.729492188 522.833007812 324.729492188 532.166992188 335.0625 539.5 c 5
406.5625 550.5 m 5
 430.895507812 515.5 427.729492188 495.166992188 397.0625 489.5 c 5
 383.395507812 483.833007812 378.0625 472.666992188 381.0625 456 c 4
 384.395507812 439.666992188 372.729492188 419.333007812 346.0625 395 c 5
 331.395507812 361 325.729492188 327 329.0625 293 c 5
 409.0625 331 470.895507812 382 514.5625 446 c 5
 510.5625 469.333007812 496.895507812 492.166992188 473.5625 514.5 c 4
 449.895507812 536.833007812 427.5625 548.833007812 406.5625 550.5 c 5
852.0625 345.5 m 4
 828.395507812 345.5 821.5625 330.5 831.5625 300.5 c 5
 853.895507812 263.833007812 907.5625 227.833007812 992.5625 192.5 c 5
 1012.89550781 192.5 1021.89550781 194.5 1019.5625 198.5 c 4
 1006.5625 237.166992188 985.0625 269.666992188 955.0625 296 c 4
 925.0625 322.333007812 891.895507812 338.666992188 855.5625 345 c 4
 854.229492188 345.333007812 853.0625 345.5 852.0625 345.5 c 4
528.0625 406 m 5
 478.729492188 341.333007812 414.0625 291.166992188 334.0625 255.5 c 5
 324.395507812 240.833007812 336.395507812 213.333007812 370.0625 173 c 5
 372.395507812 209.333007812 391.895507812 227.5 428.5625 227.5 c 4
 434.895507812 227.5 441.895507812 226.833007812 449.5625 225.5 c 4
 485.229492188 220.166992188 519.729492188 217.5 553.0625 217.5 c 4
 567.0625 217.5 580.895507812 218 594.5625 219 c 4
 640.895507812 222.333007812 704.0625 241.833007812 784.0625 277.5 c 5
 784.0625 316.833007812 778.229492188 336.5 766.5625 336.5 c 4
 765.229492188 336.5 763.729492188 336.166992188 762.0625 335.5 c 4
 748.0625 334.166992188 734.229492188 333.5 720.5625 333.5 c 4
 642.5625 333.5 578.395507812 357.666992188 528.0625 406 c 5
380.0625 582.5 m 4
 414.729492188 582.5 447.0625 572 477.0625 551 c 4
 508.729492188 528.666992188 535.895507812 488.833007812 558.5625 431.5 c 5
 599.5625 391.5 651.395507812 371.5 714.0625 371.5 c 4
 742.729492188 371.5 773.729492188 375.666992188 807.0625 384 c 5
 834.395507812 418 864.895507812 436.833007812 898.5625 440.5 c 4
 900.5625 440.833007812 902.729492188 441 905.0625 441 c 4
 936.395507812 441 966.395507812 415.166992188 995.0625 363.5 c 5
 990.729492188 355.166992188 985.395507812 351 979.0625 351 c 4
 970.0625 351 959.229492188 359.333007812 946.5625 376 c 4
 934.229492188 392 921.395507812 400 908.0625 400 c 4
 897.395507812 400 886.395507812 395.166992188 875.0625 385.5 c 5
 918.729492188 361.833007812 958.729492188 335.666992188 995.0625 307 c 4
 1031.39550781 278.333007812 1057.22949219 248 1072.5625 216 c 4
 1087.89550781 184 1082.22949219 155.833007812 1055.5625 131.5 c 5
 661.5625 131.5 l 5
 647.895507812 147.833007812 648.729492188 161.833007812 664.0625 173.5 c 4
 671.395507812 179.166992188 682.395507812 182 697.0625 182 c 4
 713.395507812 182 734.229492188 178.5 759.5625 171.5 c 4
 774.895507812 167.5 788.5625 165.5 800.5625 165.5 c 4
 826.5625 165.5 844.895507812 175.333007812 855.5625 195 c 5
 850.5625 209.333007812 836.229492188 219.333007812 812.5625 225 c 4
 803.895507812 227 795.5625 228 787.5625 228 c 4
 773.5625 228 760.395507812 224.833007812 748.0625 218.5 c 4
 729.0625 208.5 688.229492188 197.5 625.5625 185.5 c 4
 582.229492188 177.5 544.729492188 173.5 513.0625 173.5 c 4
 499.0625 173.5 486.0625 174.333007812 474.0625 176 c 4
 466.395507812 177 459.729492188 177.5 454.0625 177.5 c 4
 431.0625 177.5 423.895507812 168.833007812 432.5625 151.5 c 4
 440.5625 136.5 383.895507812 129 262.5625 129 c 4
 211.895507812 129 150.395507812 130.333007812 78.0625 133 c 5
 30.5625 133 l 5
 17.5625 146 16.5625 161.166992188 27.5625 178.5 c 4
 33.2294921875 187.5 45.2294921875 192 63.5625 192 c 4
 80.5625 192 103.0625 188 131.0625 180 c 4
 144.0625 178.666992188 156.229492188 178 167.5625 178 c 4
 204.229492188 178 233.0625 185 254.0625 199 c 4
 281.395507812 217.333007812 292.0625 233.666992188 286.0625 248 c 4
 280.0625 262.666992188 280.0625 285.333007812 286.0625 316 c 4
 292.0625 346.666992188 296.729492188 368.166992188 300.0625 380.5 c 5
 296.0625 392.5 289.895507812 399.166992188 281.5625 400.5 c 6
 278.0625 400.5 l 6
 271.729492188 400.5 266.5625 397.666992188 262.5625 392 c 4
 257.5625 385 246.895507812 380.333007812 230.5625 378 c 5
 217.895507812 384.333007812 210.5625 394.5 208.5625 408.5 c 4
 206.229492188 422.166992188 204.395507812 429 203.0625 429 c 4
 194.729492188 434.666992188 190.5625 442 190.5625 451 c 5
 179.229492188 461.333007812 175.729492188 471 180.0625 480 c 4
 182.395507812 485.666992188 190.229492188 492.333007812 203.5625 500 c 4
 216.895507812 507.666992188 229.0625 516.333007812 240.0625 526 c 4
 250.729492188 535.666992188 262.395507812 542.333007812 275.0625 546 c 4
 287.729492188 549.666992188 301.229492188 554.333007812 315.5625 560 c 5
 318.229492188 573.666992188 337.895507812 581.166992188 374.5625 582.5 c 6
 380.0625 582.5 l 4
EndSplineSet
EndChar

StartChar: g
Encoding: 103 103 8
Width: 556
Flags: HW
LayerCount: 2
Fore
SplineSet
278 329 m 5
 226 207.5 l 5
 243.333007812 201.833007812 260.666992188 199 278 199 c 4
 295.333007812 199 312.666992188 201.833007812 330 207.5 c 5
 278 329 l 5
278 424.5 m 5
 392 175 l 5
 356.666992188 159 318.666992188 151 278 151 c 4
 237.666992188 151 199.666992188 159 164 175 c 5
 278 424.5 l 5
432 504.5 m 5
 124 504.5 l 5
 118.333007812 385.166992188 101.333007812 272.5 73 166.5 c 5
 107.666992188 127.5 176 108 278 108 c 4
 380 108 448.333007812 127.5 483 166.5 c 5
 454.666992188 272.5 437.666992188 385.166992188 432 504.5 c 5
59 552.5 m 6
 497 552.5 l 6
 514.333007812 552.5 523 544.5 523 528.5 c 4
 523 512.5 514.333007812 504.5 497 504.5 c 5
 492.666992188 500.833007812 485.833007812 496.833007812 476.5 492.5 c 5
 482.166992188 387.166992188 502 268.666992188 536 137 c 5
 472.333007812 85 386.333007812 59 278 59 c 4
 169.666992188 59 83.6669921875 85 20 137 c 5
 54 268.666992188 73.8330078125 387.166992188 79.5 492.5 c 5
 70.1669921875 496.833007812 63.3330078125 500.833007812 59 504.5 c 5
 41.6669921875 504.5 33 512.5 33 528.5 c 4
 33 544.5 41.6669921875 552.5 59 552.5 c 6
EndSplineSet
EndChar

StartChar: k
Encoding: 107 107 9
Width: 1047
Flags: HWO
LayerCount: 2
Fore
SplineSet
972.0234375 349.5 m 5
 973.690429688 337.833007812 974.5234375 321 974.5234375 299 c 4
 974.5234375 298.666992188 974.606445312 295.083007812 974.7734375 288.25 c 4
 974.940429688 281.416992188 975.0234375 276.833007812 975.0234375 274.5 c 4
 975.0234375 272.166992188 975.356445312 267.916992188 976.0234375 261.75 c 4
 976.690429688 255.583007812 977.5234375 250.916992188 978.5234375 247.75 c 4
 979.5234375 244.583007812 980.940429688 240.916992188 982.7734375 236.75 c 4
 984.606445312 232.583007812 986.690429688 229.333007812 989.0234375 227 c 5
 990.356445312 230 991.356445312 233.333007812 992.0234375 237 c 4
 992.690429688 240.666992188 993.106445312 243.833007812 993.2734375 246.5 c 4
 993.440429688 249.166992188 993.690429688 252.833007812 994.0234375 257.5 c 4
 994.356445312 262.166992188 994.5234375 265.5 994.5234375 267.5 c 4
 992.5234375 303.833007812 985.0234375 331.166992188 972.0234375 349.5 c 5
73.5234375 372 m 5
 128.5234375 312.333007812 186.5234375 269.083007812 247.5234375 242.25 c 4
 308.5234375 215.416992188 383.5234375 202 472.5234375 202 c 4
 560.856445312 202 637.690429688 215.583007812 703.0234375 242.75 c 4
 768.356445312 269.916992188 831.856445312 312.666992188 893.5234375 371 c 5
 73.5234375 372 l 5
36.5234375 405 m 5
 36.5234375 405 l 5
 941.0234375 404 l 6
 965.356445312 404 986.356445312 389.666992188 1004.0234375 361 c 4
 1019.69042969 334 1027.5234375 302.833007812 1027.5234375 267.5 c 4
 1027.5234375 259.166992188 1027.35644531 253 1027.0234375 249 c 4
 1026.69042969 245 1025.94042969 239.166992188 1024.7734375 231.5 c 4
 1023.60644531 223.833007812 1021.85644531 217.916992188 1019.5234375 213.75 c 4
 1017.19042969 209.583007812 1013.69042969 205.5 1009.0234375 201.5 c 4
 1004.35644531 197.5 998.690429688 194.833007812 992.0234375 193.5 c 4
 972.690429688 195.166992188 959.190429688 205.833007812 951.5234375 225.5 c 4
 945.856445312 239.166992188 942.5234375 263.666992188 941.5234375 299 c 4
 941.5234375 330 939.356445312 352 935.0234375 365 c 5
 890.0234375 320.666992188 845.190429688 284.5 800.5234375 256.5 c 4
 755.856445312 228.5 706.2734375 206.916992188 651.7734375 191.75 c 4
 597.2734375 176.583007812 537.5234375 169 472.5234375 169 c 4
 373.856445312 169 289.856445312 185.75 220.5234375 219.25 c 4
 151.190429688 252.75 85.6904296875 305.5 24.0234375 377.5 c 4
 19.6904296875 382.833007812 18.8564453125 388.833007812 21.5234375 395.5 c 4
 24.5234375 401.833007812 29.5234375 405 36.5234375 405 c 5
EndSplineSet
EndChar

StartChar: h
Encoding: 104 104 10
Width: 630
Flags: HW
LayerCount: 2
Fore
SplineSet
20 649 m 5
 610.5 649 l 5
 610.5 89 l 5
 321 89 l 5
 321 452 l 5
 370 452 l 5
 371 138 l 5
 562.5 139 l 5
 562.5 601 l 5
 67 601 l 5
 67 89 l 5
 20 89 l 5
 20 649 l 5
EndSplineSet
EndChar

StartChar: j
Encoding: 106 106 11
Width: 319
Flags: HW
LayerCount: 2
Fore
SplineSet
159 779 m 0
 124.666666667 779 107.5 756.333333333 107.5 711 c 0
 107.5 671.333333333 124.666666667 632 159 593 c 1
 193.333333333 632 210.5 671.333333333 210.5 711 c 0
 210.5 756.333333333 193.333333333 779 159 779 c 0
159 518 m 0
 135 518 123 492 123 440 c 0
 123 410.333333333 135 383 159 358 c 1
 183.333333333 383 195.5 410.333333333 195.5 440 c 0
 195.5 492 183.333333333 518 159 518 c 0
159 282 m 0
 135 282 123 255.833333333 123 203.5 c 0
 123 173.833333333 135 146.666666667 159 122 c 1
 183.333333333 146.666666667 195.5 173.833333333 195.5 203.5 c 0
 195.5 255.833333333 183.333333333 282 159 282 c 0
159 817.5 m 0
 222.333333333 817.5 254 782 254 711 c 0
 254 666.666666667 243.5 631.833333333 222.5 606.5 c 0
 201.166666667 581.166666667 191.666666667 564.166666667 194 555.5 c 1
 220.666666667 523.5 234 485 234 440 c 0
 234 402.333333333 219.166666667 362.166666667 189.5 319.5 c 1
 219.166666667 287.5 234 248.833333333 234 203.5 c 0
 234 166.166666667 218.333333333 126.5 187 84.5 c 0
 182.333333333 74.1666666667 193.5 50.3333333333 220.5 13 c 0
 247.5 -24.3333333333 273.833333333 -89 299.5 -181 c 1
 247 -181 l 1
 229.666666667 -120.333333333 214.666666667 -76.8333333333 202 -50.5 c 0
 189 -24.5 174.666666667 -3.33333333333 159 13 c 1
 144.333333333 -3.33333333333 130.333333333 -24.5 117 -50.5 c 0
 103.666666667 -76.8333333333 88.5 -120.333333333 71.5 -181 c 1
 20 -181 l 1
 47.3333333333 -89 73.8333333333 -24.3333333333 99.5 13 c 0
 125.166666667 50.3333333333 136 74.1666666667 132 84.5 c 1
 100.333333333 126.5 84.5 166.166666667 84.5 203.5 c 0
 84.5 248.833333333 100.333333333 287.5 132 319.5 c 1
 100.333333333 362.166666667 84.5 402.333333333 84.5 440 c 0
 84.5 485 98 523.5 125 555.5 c 1
 127.333333333 564.166666667 117.833333333 581.166666667 96.5 606.5 c 0
 75.1666666667 631.833333333 64.8333333333 666.666666667 65.5 711 c 0
 65.5 782 96.6666666667 817.5 159 817.5 c 0
EndSplineSet
EndChar

StartChar: q
Encoding: 113 113 12
Width: 503
Flags: HW
LayerCount: 2
Fore
SplineSet
388 517 m 4
 377.666992188 517 367.833007812 514.166992188 358.5 508.5 c 4
 341.5 497.833007812 316.833007812 461.833007812 284.5 400.5 c 4
 251.833007812 339.166992188 191.833007812 248.5 104.5 128.5 c 5
 444 128.5 l 5
 444 309.5 l 6
 444 435.5 434 502.833007812 414 511.5 c 4
 405 515.166992188 396.333007812 517 388 517 c 4
373.5 555.5 m 6
 403.5 555.5 428 550.333007812 447 540 c 4
 467.333007812 528.666992188 479.166992188 465.166992188 482.5 349.5 c 5
 483.5 89 l 5
 20 89 l 5
 139.333007812 243.666992188 219.166992188 359.833007812 259.5 437.5 c 4
 299.833007812 515.5 336 554.833007812 368 555.5 c 6
 373.5 555.5 l 6
EndSplineSet
EndChar

StartChar: x
Encoding: 120 120 13
Width: 1040
Flags: HW
LayerCount: 2
Fore
SplineSet
238 406 m 4
 198 406 160.666992188 395.666992188 126 375 c 5
 151.333007812 360.333007812 188.666992188 353 238 353 c 4
 303.666992188 353 349.666992188 357.833007812 376 367.5 c 5
 328.333007812 393.166992188 282.333007812 406 238 406 c 4
876.5 365 m 6
 867.5 365 l 6
 833.166992188 364 783.75 358.916992188 719.25 349.75 c 4
 654.75 340.583007812 617.5 335.5 607.5 334.5 c 5
 639.166992188 331.166992188 678.833007812 325.333007812 726.5 317 c 4
 792.5 307.666992188 842.5 303 876.5 303 c 4
 892.166992188 303 906.166992188 303.666992188 918.5 305 c 4
 943.166992188 307.666992188 961.166992188 314.5 972.5 325.5 c 4
 977.5 331.166992188 978 336.166992188 974 340.5 c 4
 969.333007812 348.166992188 958.333007812 354.333007812 941 359 c 4
 925.666992188 363 904.166992188 365 876.5 365 c 6
238 316 m 4
 188.666992188 316 151.333007812 308.666992188 126 294 c 5
 160.666992188 273.333007812 198 263 238 263 c 4
 282.333007812 263 328.333007812 275.833007812 376 301.5 c 5
 349.666992188 311.166992188 303.666992188 316 238 316 c 4
238 479 m 5
 261.333007812 476 273 463.333007812 273 441 c 5
 310.5 434 l 5
 316.833007812 450 327.666992188 458 343 458 c 4
 348.333007812 458 353.166992188 457.333007812 357.5 456 c 4
 377.833007812 444.333007812 383.833007812 428 375.5 407 c 5
 376 407 l 5
 407 389 440 374 475 362 c 5
 529.333007812 362 603 368.833007812 696 382.5 c 4
 787 395.833007812 853.5 402.5 895.5 402.5 c 4
 936.5 402.5 967.5 395.5 988.5 381.5 c 4
 1009.83300781 367.5 1020.5 351.833007812 1020.5 334.5 c 4
 1020.5 316.5 1009.83300781 300.5 988.5 286.5 c 4
 967.5 272.5 936.5 265.5 895.5 265.5 c 4
 853.5 265.5 787 272.166992188 696 285.5 c 4
 603 299.166992188 529.333007812 306 475 306 c 5
 438 292.666992188 405 277.666992188 376 261 c 5
 384.333007812 240.666992188 378.166992188 224.5 357.5 212.5 c 4
 353.166992188 211.166992188 348.333007812 210.5 343 210.5 c 4
 328 210.5 317.166992188 218.333007812 310.5 234 c 5
 273 227 l 5
 273 204.666992188 261.333007812 192 238 189 c 5
 214.666992188 192 203 204.666992188 203 227 c 5
 183.666992188 230.333007812 167 234.666992188 153 240 c 5
 145.666992188 226.666992188 135.666992188 220 123 220 c 4
 117.666992188 220 111.333007812 221.333007812 104 224 c 4
 85 238 80.6669921875 254.5 91 273.5 c 5
 79.3330078125 279.5 55.6669921875 299.833007812 20 334.5 c 5
 54.6669921875 368.166992188 78.3330078125 388 91 394 c 5
 80.3330078125 413.666992188 84.6669921875 430.5 104 444.5 c 4
 111.333007812 447.166992188 117.666992188 448.5 123 448.5 c 4
 135.333007812 448.5 145.333007812 441.666992188 153 428 c 5
 168 434 184.333007812 438.5 202 441.5 c 5
 202 463.5 214 476 238 479 c 5
EndSplineSet
EndChar

StartChar: Z
Encoding: 90 90 14
Width: 958
Flags: HW
LayerCount: 2
Fore
SplineSet
111.254882812 767 m 1
 111.254882812 766.5 l 1
 113.254882812 766.5 116.254882812 764.833007812 120.254882812 761.5 c 0
 129.254882812 755.166992188 128.754882812 752 118.754882812 752 c 0
 116.087890625 752 112.254882812 752.166992188 107.254882812 752.5 c 0
 102.254882812 752.833007812 99.087890625 753 97.7548828125 753 c 2
 95.2548828125 753 l 2
 85.921875 753.666992188 84.2548828125 756 90.2548828125 760 c 0
 97.2548828125 764.666992188 104.254882812 767 111.254882812 767 c 1
115.254882812 776 m 1
 108.921875 776 100.254882812 774.666992188 89.2548828125 772 c 0
 63.2548828125 766.333007812 55.921875 758.5 67.2548828125 748.5 c 0
 77.2548828125 739.833007812 89.587890625 735.5 104.254882812 735.5 c 0
 107.921875 735.5 113.171875 735.833007812 120.004882812 736.5 c 0
 126.837890625 737.166992188 131.421875 737.5 133.754882812 737.5 c 0
 135.087890625 737.5 139.671875 737.833007812 147.504882812 738.5 c 0
 155.337890625 739.166992188 161.421875 739.5 165.754882812 739.5 c 0
 184.754882812 739.5 196.254882812 732.833007812 200.254882812 719.5 c 0
 204.254882812 705.5 201.921875 686.25 193.254882812 661.75 c 0
 184.587890625 637.25 179.921875 621.166992188 179.254882812 613.5 c 0
 177.921875 599.5 181.587890625 585.75 190.254882812 572.25 c 0
 198.921875 558.75 209.754882812 550.833007812 222.754882812 548.5 c 0
 232.754882812 546.5 246.087890625 545.5 262.754882812 545.5 c 0
 283.421875 545.5 327.504882812 547.75 395.004882812 552.25 c 0
 462.504882812 556.75 513.754882812 559 548.754882812 559 c 0
 596.087890625 559 632.587890625 555.833007812 658.254882812 549.5 c 0
 697.254882812 539.5 731.004882812 527.75 759.504882812 514.25 c 0
 788.004882812 500.75 811.254882812 482 829.254882812 458 c 0
 844.587890625 438 857.171875 416.25 867.004882812 392.75 c 0
 876.837890625 369.25 883.921875 348.083007812 888.254882812 329.25 c 0
 892.587890625 310.416992188 895.254882812 288.166992188 896.254882812 262.5 c 0
 897.254882812 236.833007812 897.337890625 216.833007812 896.504882812 202.5 c 0
 895.671875 188.166992188 894.087890625 168.416992188 891.754882812 143.25 c 0
 889.421875 118.083007812 888.087890625 101.666992188 887.754882812 94 c 1
 889.421875 104.666992188 891.754882812 119.916992188 894.754882812 139.75 c 0
 897.754882812 159.583007812 900.004882812 174.583007812 901.504882812 184.75 c 0
 903.004882812 194.916992188 904.754882812 208.916992188 906.754882812 226.75 c 0
 908.754882812 244.583007812 910.004882812 258.666992188 910.504882812 269 c 0
 911.004882812 279.333007812 911.337890625 292.416992188 911.504882812 308.25 c 0
 911.671875 324.083007812 910.921875 337.416992188 909.254882812 348.25 c 0
 907.587890625 359.083007812 905.337890625 371.666992188 902.504882812 386 c 0
 899.671875 400.333007812 895.921875 413.25 891.254882812 424.75 c 0
 886.587890625 436.25 880.754882812 448.416992188 873.754882812 461.25 c 0
 866.754882812 474.083007812 858.754882812 486.666992188 849.754882812 499 c 0
 823.754882812 534.666992188 789.837890625 558.583007812 748.004882812 570.75 c 0
 706.171875 582.916992188 647.921875 589 573.254882812 589 c 0
 545.921875 589 496.587890625 588 425.254882812 586 c 0
 353.921875 584 295.421875 582.833007812 249.754882812 582.5 c 2
 240.254882812 582.5 l 2
 210.254882812 582.5 193.587890625 590.666992188 190.254882812 607 c 0
 187.921875 617.666992188 188.087890625 628.75 190.754882812 640.25 c 0
 193.421875 651.75 197.587890625 664.5 203.254882812 678.5 c 0
 208.921875 692.5 212.587890625 703.333007812 214.254882812 711 c 0
 215.254882812 716 215.004882812 720.416992188 213.504882812 724.25 c 0
 212.004882812 728.083007812 210.087890625 731.166992188 207.754882812 733.5 c 0
 205.421875 735.833007812 201.837890625 738.083007812 197.004882812 740.25 c 0
 192.171875 742.416992188 188.421875 743.916992188 185.754882812 744.75 c 0
 183.087890625 745.583007812 179.087890625 746.666992188 173.754882812 748 c 0
 167.087890625 750 157.587890625 754.666992188 145.254882812 762 c 0
 132.921875 769.333007812 123.254882812 773.833007812 116.254882812 775.5 c 2
 115.254882812 776 l 1
118.754882812 808.5 m 0
 128.087890625 808.5 139.754882812 804 153.754882812 795 c 0
 167.754882812 786 177.921875 780.666992188 184.254882812 779 c 0
 201.587890625 774.333007812 216.004882812 768.333007812 227.504882812 761 c 0
 239.004882812 753.666992188 245.587890625 743.166992188 247.254882812 729.5 c 0
 248.587890625 717.833007812 248.004882812 706.166992188 245.504882812 694.5 c 0
 243.004882812 682.833007812 238.837890625 669.25 233.004882812 653.75 c 0
 227.171875 638.25 223.254882812 627 221.254882812 620 c 1
 245.921875 617.666992188 274.587890625 616.5 307.254882812 616.5 c 0
 334.254882812 616.5 377.421875 617.75 436.754882812 620.25 c 0
 496.087890625 622.75 540.587890625 624 570.254882812 624 c 0
 656.254882812 624 722.587890625 615.5 769.254882812 598.5 c 0
 860.587890625 565.833007812 915.254882812 491.833007812 933.254882812 376.5 c 0
 939.254882812 337.5 940.421875 286.5 936.754882812 223.5 c 0
 935.754882812 204.5 932.171875 175.25 926.004882812 135.75 c 0
 919.837890625 96.25 916.421875 66 915.754882812 45 c 0
 915.087890625 19.3330078125 917.754882812 -17 923.754882812 -64 c 0
 929.754882812 -111 933.254882812 -145.166992188 934.254882812 -166.5 c 0
 934.587890625 -174.166992188 932.921875 -180.166992188 929.254882812 -184.5 c 0
 925.587890625 -188.833007812 921.087890625 -191 915.754882812 -191 c 0
 911.087890625 -191 906.587890625 -189.166992188 902.254882812 -185.5 c 0
 897.921875 -181.833007812 895.087890625 -176.833007812 893.754882812 -170.5 c 0
 891.087890625 -160.166992188 886.087890625 -141.916992188 878.754882812 -115.75 c 0
 871.421875 -89.5830078125 865.671875 -66.9169921875 861.504882812 -47.75 c 0
 857.337890625 -28.5830078125 854.587890625 -9.8330078125 853.254882812 8.5 c 0
 851.254882812 18.8330078125 850.671875 36.0830078125 851.504882812 60.25 c 0
 852.337890625 84.4169921875 853.171875 101.75 854.004882812 112.25 c 0
 854.837890625 122.75 856.337890625 140.083007812 858.504882812 164.25 c 0
 860.671875 188.416992188 862.254882812 205.666992188 863.254882812 216 c 0
 867.254882812 263.333007812 857.921875 319.166992188 835.254882812 383.5 c 0
 829.921875 398.833007812 820.587890625 414.333007812 807.254882812 430 c 0
 793.921875 445.666992188 776.337890625 461.166992188 754.504882812 476.5 c 0
 732.671875 491.833007812 704.671875 504.333007812 670.504882812 514 c 0
 636.337890625 523.666992188 598.921875 528.5 558.254882812 528.5 c 2
 549.754882812 528.5 l 2
 521.754882812 528.166992188 477.921875 525.416992188 418.254882812 520.25 c 0
 358.587890625 515.083007812 313.254882812 512.5 282.254882812 512.5 c 0
 263.254882812 512.5 246.254882812 513.166992188 231.254882812 514.5 c 0
 212.587890625 515.833007812 196.171875 522.833007812 182.004882812 535.5 c 0
 167.837890625 548.166992188 157.421875 563.666992188 150.754882812 582 c 0
 146.421875 598.333007812 146.004882812 612.25 149.504882812 623.75 c 0
 153.004882812 635.25 157.421875 649 162.754882812 665 c 0
 168.087890625 681 170.087890625 693.666992188 168.754882812 703 c 0
 168.421875 707 163.921875 709 155.254882812 709 c 0
 149.921875 709 135.921875 706.833007812 113.254882812 702.5 c 0
 108.921875 701.5 104.754882812 701 100.754882812 701 c 0
 85.087890625 701 66.421875 708.833007812 44.7548828125 724.5 c 0
 38.087890625 729.5 32.337890625 735.333007812 27.5048828125 742 c 0
 22.671875 748.666992188 20.171875 756 20.0048828125 764 c 0
 19.837890625 772 23.921875 778.333007812 32.2548828125 783 c 0
 58.921875 798.666992188 86.921875 807 116.254882812 808 c 0
 116.921875 808.333007812 117.754882812 808.5 118.754882812 808.5 c 0
EndSplineSet
EndChar

StartChar: C
Encoding: 67 67 15
Width: 1041
Flags: HW
LayerCount: 2
Fore
SplineSet
95.5 486.5 m 6
 69.1669921875 486.5 56.5 474.666992188 57.5 451 c 4
 56.5 426.333007812 69.5 414 96.5 414 c 4
 99.1669921875 414 101.166992188 414.166992188 102.5 414.5 c 4
 132.833007812 415.833007812 166.5 428 203.5 451 c 5
 167.833007812 472 134.166992188 483.833007812 102.5 486.5 c 5
 95.5 486.5 l 6
95.5 268 m 4
 69.1669921875 268 56.5 256.166992188 57.5 232.5 c 4
 56.5 207.833007812 69.5 195.5 96.5 195.5 c 4
 99.1669921875 195.5 101.166992188 195.666992188 102.5 196 c 4
 132.833007812 197.333007812 166.5 209.5 203.5 232.5 c 5
 167.5 253.833007812 133.833007812 265.5 102.5 267.5 c 4
 100.833007812 267.833007812 98.5 268 95.5 268 c 4
91.5 522.5 m 6
 130.166992188 522.5 179.5 509.333007812 239.5 483 c 5
 839.5 483 l 5
 849.5 483 l 6
 922.5 483 972.666992188 460 1000 414 c 4
 1029 365.333007812 1029 317 1000 269 c 4
 972 222 920.666992188 198.5 846 198.5 c 6
 839.5 198.5 l 5
 239.5 198.5 l 5
 172.166992188 172.5 120.333007812 159.333007812 84 159 c 6
 82.5 159 l 6
 46.8330078125 159 26 183.5 20 232.5 c 5
 24.6669921875 278.833007812 46.5 302.666992188 85.5 304 c 6
 91.5 304 l 6
 130.166992188 304 179.5 290.833007812 239.5 264.5 c 5
 874.5 264.5 l 5
 927.166992188 274.166992188 953.333007812 300.833007812 953 344.5 c 4
 952.666992188 388.5 926.5 412.666992188 874.5 417 c 5
 239.5 417 l 5
 173.5 391.666992188 121.666992188 378.5 84 377.5 c 6
 82.5 377.5 l 6
 46.8330078125 377.5 26 402 20 451 c 5
 24.3330078125 497.333007812 46.1669921875 521.166992188 85.5 522.5 c 6
 91.5 522.5 l 6
EndSplineSet
EndChar

StartChar: S
Encoding: 83 83 16
Width: 1017
Flags: HW
LayerCount: 2
Fore
SplineSet
20 460 m 5
 997 460 l 5
 997 219 l 5
 20 219 l 5
 20 460 l 5
957 420 m 5
 60 420 l 5
 60 259 l 5
 957 259 l 5
 957 420 l 5
EndSplineSet
EndChar

StartChar: r
Encoding: 114 114 17
Width: 1008
Flags: HW
LayerCount: 2
Fore
SplineSet
504 423 m 4
 391 423 270.5 395.5 142.5 340.5 c 5
 270.5 287.166992188 391 260.5 504 260.5 c 4
 617.666992188 260.5 738.333007812 287.166992188 866 340.5 c 5
 738.333007812 395.5 617.666992188 423 504 423 c 4
504 475.5 m 4
 645.333007812 475.5 806.666992188 431 988 342 c 5
 805.666992188 253.333007812 644.333007812 209 504 209 c 4
 363.666992188 209 202.333007812 253.333007812 20 342 c 5
 202.333007812 431 363.666992188 475.5 504 475.5 c 4
EndSplineSet
EndChar

StartChar: z
Encoding: 122 122 18
Width: 1060
Flags: HW
LayerCount: 2
Fore
SplineSet
454 395.5 m 4
 462.666992188 395.5 470.166992188 394.666992188 476.5 393 c 4
 491.5 389 506.5 380.5 521.5 367.5 c 5
 535.5 367.5 l 5
 549.833007812 380.5 564.833007812 389 580.5 393 c 4
 586.833007812 394.666992188 594.5 395.5 603.5 395.5 c 4
 612.166992188 395.5 619.833007812 394.666992188 626.5 393 c 4
 641.833007812 389 658.166992188 380.5 675.5 367.5 c 5
 1040 367.5 l 5
 1040 287.5 l 5
 675.5 287.5 l 5
 658.166992188 274.166992188 641.833007812 265.666992188 626.5 262 c 4
 618.5 260 610.833007812 259 603.5 259 c 4
 595.833007812 259 588.166992188 260 580.5 262 c 4
 564.833007812 265.333007812 549.833007812 273.833007812 535.5 287.5 c 5
 521.5 287.5 l 5
 506.5 273.833007812 491.5 265.333007812 476.5 262 c 4
 468.833007812 260 461.333007812 259 454 259 c 4
 446 259 438.333007812 260 431 262 c 4
 415.666992188 265.333007812 399 273.833007812 381 287.5 c 5
 20 287.5 l 5
 20 367.5 l 5
 381 367.5 l 5
 399 380.5 415.666992188 389 431 393 c 4
 437.333007812 394.666992188 445 395.5 454 395.5 c 4
EndSplineSet
EndChar

StartChar: c
Encoding: 99 99 19
Width: 520
Flags: HW
LayerCount: 2
Fore
SplineSet
260 536 m 4
 228 536 197.916992188 529.083007812 169.75 515.25 c 4
 141.583007812 501.416992188 118 482.5 99 458.5 c 5
 421.5 458.5 l 5
 402.166992188 482.833007812 378.5 501.833007812 350.5 515.5 c 4
 322.5 529.166992188 292.333007812 536 260 536 c 4
443.5 425.5 m 5
 77 425.5 l 5
 64 400.833007812 56.3330078125 374.666992188 54 347 c 5
 466.5 347 l 5
 464.166992188 374.666992188 456.5 400.833007812 443.5 425.5 c 5
466.5 314 m 5
 54 314 l 5
 56 286.333007812 63.1669921875 260.166992188 75.5 235.5 c 5
 445 235.5 l 5
 457.333007812 260.166992188 464.5 286.333007812 466.5 314 c 5
423.5 202.5 m 5
 96.5 202.5 l 5
 115.833007812 177.5 139.75 157.916992188 168.25 143.75 c 4
 196.75 129.583007812 227.333007812 122.5 260 122.5 c 4
 292.666992188 122.5 323.333007812 129.583007812 352 143.75 c 4
 380.666992188 157.916992188 404.5 177.5 423.5 202.5 c 5
260 569.5 m 4
 303.333007812 569.5 343.5 558.75 380.5 537.25 c 4
 417.5 515.75 446.75 486.5 468.25 449.5 c 4
 489.75 412.5 500.5 372.333007812 500.5 329 c 4
 500.5 285.666992188 489.75 245.583007812 468.25 208.75 c 4
 446.75 171.916992188 417.5 142.75 380.5 121.25 c 4
 343.5 99.75 303.333007812 89 260 89 c 4
 216.666992188 89 176.583007812 99.75 139.75 121.25 c 4
 102.916992188 142.75 73.75 171.916992188 52.25 208.75 c 4
 30.75 245.583007812 20 285.666992188 20 329 c 4
 20 372.333007812 30.75 412.5 52.25 449.5 c 4
 73.75 486.5 102.916992188 515.75 139.75 537.25 c 4
 176.583007812 558.75 216.666992188 569.5 260 569.5 c 4
EndSplineSet
EndChar

StartChar: s
Encoding: 115 115 20
Width: 235
Flags: HW
LayerCount: 2
Fore
SplineSet
117 819 m 0
 142.333333333 819 165.083333333 809.416666667 185.25 790.25 c 0
 205.416666667 771.083333333 215.5 749.333333333 215.5 725 c 2
 215.5 124.5 l 1
 152.5 124.5 l 1
 152.5 725 l 2
 152.5 738 148.75 747.75 141.25 754.25 c 0
 133.75 760.75 125.833333333 764 117.5 764 c 0
 109.166666667 764 101.333333333 761.333333333 94 756 c 0
 86.6666666667 750.666666667 83 742.666666667 83 732 c 2
 83 -181 l 1
 20 -181 l 1
 20 732 l 2
 20 756.333333333 29.6666666667 776.916666667 49 793.75 c 0
 68.3333333333 810.583333333 91 819 117 819 c 0
EndSplineSet
EndChar

StartChar: N
Encoding: 78 78 21
Width: 800
Flags: HW
LayerCount: 2
Fore
SplineSet
728.5546875 754 m 1
 477.5546875 281 l 1
 81.0546875 281 l 1
 97.7216796875 187.666992188 108.5546875 119.5 113.5546875 76.5 c 1
 160.887695312 76.5 201.887695312 66.1669921875 236.5546875 45.5 c 1
 252.887695312 56.5 267.721679688 62 281.0546875 62 c 0
 299.721679688 62 315.887695312 52 329.5546875 32 c 0
 335.5546875 23.3330078125 339.221679688 14.8330078125 340.5546875 6.5 c 0
 341.887695312 -1.8330078125 340.8046875 -10.3330078125 337.3046875 -19 c 0
 333.8046875 -27.6669921875 330.387695312 -34.5830078125 327.0546875 -39.75 c 0
 323.721679688 -44.9169921875 318.5546875 -52.1669921875 311.5546875 -61.5 c 0
 308.5546875 -65.5 305.137695312 -70 301.3046875 -75 c 0
 297.471679688 -80 294.887695312 -83.5 293.5546875 -85.5 c 0
 292.221679688 -87.5 290.721679688 -89.8330078125 289.0546875 -92.5 c 0
 287.387695312 -95.1669921875 286.3046875 -97.25 285.8046875 -98.75 c 0
 285.3046875 -100.25 285.0546875 -102 285.0546875 -104 c 0
 288.0546875 -107.333007812 292.5546875 -111.166992188 298.5546875 -115.5 c 0
 304.5546875 -119.833007812 310.221679688 -123.583007812 315.5546875 -126.75 c 0
 320.887695312 -129.916992188 326.471679688 -133.083007812 332.3046875 -136.25 c 0
 338.137695312 -139.416992188 341.387695312 -141.166992188 342.0546875 -141.5 c 1
 742.0546875 748.5 l 1
 728.5546875 754 l 1
727.5546875 797.5 m 0
 749.887695312 797.5 767.5546875 787.833007812 780.5546875 768.5 c 1
 357.5546875 -201 l 1
 233.5546875 -121 l 1
 236.887695312 -108.666992188 242.221679688 -96.3330078125 249.5546875 -84 c 0
 256.887695312 -71.6669921875 266.137695312 -57.8330078125 277.3046875 -42.5 c 0
 288.471679688 -27.1669921875 296.221679688 -16 300.5546875 -9 c 1
 300.221679688 5 293.5546875 12 280.5546875 12 c 0
 267.221679688 12 255.221679688 4.6669921875 244.5546875 -10 c 1
 192.5546875 21 140.721679688 36.5 89.0546875 36.5 c 0
 84.3876953125 36.5 77.7216796875 36.1669921875 69.0546875 35.5 c 1
 64.0546875 91.5 49.5546875 187.333007812 25.5546875 323 c 1
 310.0546875 323 l 2
 310.721679688 323 311.721679688 322.916992188 313.0546875 322.75 c 0
 314.387695312 322.583007812 315.221679688 322.5 315.5546875 322.5 c 0
 318.887695312 322.5 321.137695312 323.083007812 322.3046875 324.25 c 0
 323.471679688 325.416992188 323.721679688 327.166992188 323.0546875 329.5 c 2
 164.0546875 444 l 2
 108.387695312 483.666992188 69.7216796875 523.5 48.0546875 563.5 c 0
 26.7216796875 602.833007812 17.5546875 639.166992188 20.5546875 672.5 c 0
 24.2216796875 705.5 36.5546875 729.166992188 57.5546875 743.5 c 0
 74.8876953125 755.166992188 91.8876953125 761 108.5546875 761 c 0
 111.221679688 761 115.221679688 760.666992188 120.5546875 760 c 0
 141.887695312 756.333007812 158.0546875 748.333007812 169.0546875 736 c 0
 180.0546875 723.333007812 185.5546875 708.5 185.5546875 691.5 c 0
 185.5546875 674.5 181.5546875 659.833007812 173.5546875 647.5 c 0
 165.221679688 634.5 150.721679688 627.333007812 130.0546875 626 c 2
 125.5546875 626 l 2
 107.221679688 626 94.7216796875 635 88.0546875 653 c 0
 80.3876953125 672.333007812 83.7216796875 684.5 98.0546875 689.5 c 0
 105.387695312 689.5 112.387695312 682.666992188 119.0546875 669 c 0
 122.387695312 662 126.221679688 658.5 130.5546875 658.5 c 0
 134.887695312 658.5 139.5546875 662 144.5546875 669 c 0
 155.221679688 682.666992188 155.721679688 696.333007812 146.0546875 710 c 0
 139.387695312 719.666992188 128.887695312 724.5 114.5546875 724.5 c 0
 108.221679688 724.5 101.0546875 723.5 93.0546875 721.5 c 0
 66.3876953125 715.833007812 53.8876953125 692.166992188 55.5546875 650.5 c 0
 56.8876953125 609.166992188 77.7216796875 567.833007812 118.0546875 526.5 c 1
 291.721679688 390.166992188 397.5546875 322 435.5546875 322 c 2
 438.5546875 322 l 2
 448.221679688 322 457.5546875 329.333007812 466.5546875 344 c 2
 720.5546875 797 l 2
 722.221679688 797.333007812 724.5546875 797.5 727.5546875 797.5 c 0
EndSplineSet
EndChar

StartChar: K
Encoding: 75 75 22
Width: 815
Flags: HW
LayerCount: 2
Fore
SplineSet
795.5 70 m 1
 791.5 50.5 l 1
 778 53 l 1
 776.666666667 59 774 68 770 80 c 0
 741.333333333 152.333333333 682.666666667 203 594 232 c 1
 636.666666667 192.666666667 669.166666667 136.666666667 691.5 64 c 0
 698.833333333 40.3333333333 702.5 22.1666666667 702.5 9.5 c 0
 702.5 5.5 702 -0.5 701 -8.5 c 0
 700 -16.5 699.5 -22.5 699.5 -26.5 c 1
 694.5 -25.8333333333 687 -25 677 -24 c 1
 679.666666667 -9.33333333333 681 3 681 13 c 0
 681 18.6666666667 680.333333333 24.6666666667 679 31 c 0
 669 77.3333333333 652.166666667 119.333333333 628.5 157 c 0
 601.166666667 200.666666667 568.666666667 230.833333333 531 247.5 c 1
 507.333333333 195.5 492.166666667 158.333333333 485.5 136 c 0
 474.5 100.333333333 469 60.8333333333 469 17.5 c 0
 469 -10.5 478.5 -44.1666666667 497.5 -83.5 c 0
 505.5 -100.166666667 509.5 -109.666666667 509.5 -112 c 0
 509.5 -117.666666667 506.666666667 -122.833333333 501 -127.5 c 0
 495.333333333 -132.166666667 489.5 -134.5 483.5 -134.5 c 0
 463.833333333 -134.5 445.666666667 -119 429 -88 c 0
 414 -60.6666666667 406.5 -35.8333333333 406.5 -13.5 c 0
 406.5 -4.83333333333 407.583333333 8.16666666667 409.75 25.5 c 0
 411.916666667 42.8333333333 413 55.8333333333 413 64.5 c 0
 413 67.8333333333 408.666666667 71.5 400 75.5 c 1
 400 76 l 1
 382.666666667 76 370.333333333 59.3333333333 363 26 c 0
 360 12.6666666667 353.5 -4 343.5 -24 c 1
 287 -24 l 1
 283.333333333 24.3333333333 265.666666667 57.6666666667 234 76 c 0
 224.333333333 81.6666666667 211.166666667 85 194.5 86 c 0
 170.5 88 156.666666667 89.3333333333 153 90 c 1
 157.333333333 129 161.666666667 168.166666667 166 207.5 c 0
 173 251.833333333 184.666666667 289.166666667 201 319.5 c 1
 80.3333333333 357.166666667 20 409 20 475 c 0
 20 499.333333333 29 519.583333333 47 535.75 c 0
 65 551.916666667 86.1666666667 560 110.5 560 c 0
 128.166666667 560 143.833333333 552.583333333 157.5 537.75 c 0
 171.166666667 522.916666667 178 506.5 178 488.5 c 0
 178 474.166666667 171.833333333 460.833333333 159.5 448.5 c 0
 147.166666667 436.166666667 133.833333333 430 119.5 430 c 0
 104.166666667 430 92.8333333333 433.333333333 85.5 440 c 0
 73.8333333333 450.666666667 68 461.833333333 68 473.5 c 0
 68 475.5 68.4166666667 478.5 69.25 482.5 c 0
 70.0833333333 486.5 70.5 489.333333333 70.5 491 c 0
 72.1666666667 494.333333333 76.1666666667 497.666666667 82.5 501 c 1
 90 495 l 2
 91 493 91.5 490.666666667 91.5 488 c 0
 91.5 486.666666667 91.25 484.75 90.75 482.25 c 0
 90.25 479.75 90 477.833333333 90 476.5 c 0
 90 475.166666667 90.1666666667 474 90.5 473 c 0
 95.1666666667 459.333333333 104.333333333 452.5 118 452.5 c 0
 128 452.5 136.75 456.416666667 144.25 464.25 c 0
 151.75 472.083333333 155.5 481 155.5 491 c 0
 155.5 503.666666667 150.916666667 514.583333333 141.75 523.75 c 0
 132.583333333 532.916666667 121.666666667 537.5 109 537.5 c 0
 90.6666666667 537.5 74.8333333333 531.833333333 61.5 520.5 c 0
 47.1666666667 508.833333333 40 494 40 476 c 0
 40 444.666666667 61.1666666667 414.166666667 103.5 384.5 c 0
 141.5 357.833333333 177.5 342.833333333 211.5 339.5 c 1
 227.166666667 364.5 252.666666667 399.833333333 288 445.5 c 0
 294 451.833333333 328.666666667 481.166666667 392 533.5 c 0
 441.333333333 574.5 470.333333333 605.5 479 626.5 c 0
 482 633.5 485 652 488 682 c 0
 490.333333333 706.333333333 496.833333333 724.333333333 507.5 736 c 0
 518.166666667 747.666666667 534.333333333 753.5 556 753.5 c 0
 575 753.5 589.5 747.833333333 599.5 736.5 c 0
 606.5 728.5 610 717.833333333 610 704.5 c 0
 610 683.833333333 600.75 659.916666667 582.25 632.75 c 0
 563.75 605.583333333 554.5 584.833333333 554.5 570.5 c 0
 554.5 568.166666667 555.5 558.5 557.5 541.5 c 2
 565.5 473.5 l 2
 568.166666667 450.833333333 569.5 438.833333333 569.5 437.5 c 0
 569.5 401.833333333 559 346.666666667 538 272 c 1
 576.333333333 261 604.666666667 252 623 245 c 0
 654.333333333 233 680.833333333 219.5 702.5 204.5 c 0
 721.5 191.5 740.166666667 171.333333333 758.5 144 c 0
 775.833333333 118.333333333 788.166666667 93.6666666667 795.5 70 c 1
587 700.5 m 0
 587 706.5 585.333333333 713.333333333 582 721 c 1
 569.333333333 729.333333333 561 733.5 557 733.5 c 0
 537.333333333 733.5 523.833333333 725.333333333 516.5 709 c 0
 513.166666667 701.666666667 509.166666667 683.166666667 504.5 653.5 c 0
 500.166666667 627.166666667 493.666666667 607.5 485 594.5 c 0
 470 571.833333333 440.333333333 543.666666667 396 510 c 0
 347 472.333333333 315.333333333 445.166666667 301 428.5 c 0
 228.333333333 344.833333333 189.666666667 262.833333333 185 182.5 c 0
 183 166.166666667 180.166666667 141.5 176.5 108.5 c 1
 181.166666667 107.833333333 188 107.166666667 197 106.5 c 0
 223 105.166666667 247.583333333 93.3333333333 270.75 71 c 0
 293.916666667 48.6666666667 305.833333333 24.5 306.5 -1.5 c 1
 337 -1.5 l 1
 342.333333333 33.1666666667 346.666666667 54.5 350 62.5 c 0
 359.333333333 84.8333333333 376.166666667 96 400.5 96 c 0
 407.833333333 96 415.666666667 92.1666666667 424 84.5 c 0
 432.333333333 76.8333333333 436.5 69.3333333333 436.5 62 c 0
 436.5 55.3333333333 434.833333333 45.0833333333 431.5 31.25 c 0
 428.166666667 17.4166666667 426.5 7.16666666667 426.5 0.5 c 0
 426.5 -18.8333333333 431.333333333 -41.5 441 -67.5 c 0
 453 -98.8333333333 466.666666667 -114.5 482 -114.5 c 0
 484 -114.5 485.666666667 -113.333333333 487 -111 c 0
 460 -57.6666666667 446.5 -6.66666666667 446.5 42 c 0
 446.5 75.6666666667 455.166666667 116.166666667 472.5 163.5 c 0
 487.5 202.5 502.666666667 241.5 518 280.5 c 0
 527.333333333 307.166666667 536.166666667 349 544.5 406 c 0
 547.833333333 429.333333333 549.5 441.5 549.5 442.5 c 0
 549.5 453.833333333 547 474.083333333 542 503.25 c 0
 537 532.416666667 534.5 552.666666667 534.5 564 c 0
 534.5 586.666666667 540.666666667 607.166666667 553 625.5 c 0
 575.666666667 659.5 587 684.5 587 700.5 c 0
EndSplineSet
EndChar

StartChar: R
Encoding: 82 82 23
Width: 1077
Flags: HW
LayerCount: 2
Fore
SplineSet
753.5 586.5 m 1
 745.833333333 578.833333333 742 566.5 742 549.5 c 0
 742 532.5 744.833333333 518 750.5 506 c 1
 756.833333333 502 784.333333333 500 833 500 c 2
 839 500 l 1
 844.25 500 l 2
 845.75 500 847.083333333 500.083333333 848.25 500.25 c 0
 849.416666667 500.416666667 850.333333333 500.5 851 500.5 c 2
 852 500.5 l 2
 854.333333333 500.5 856.333333333 500 858 499 c 0
 864.666666667 495.666666667 867.666666667 489 867 479 c 0
 866.333333333 470.333333333 862.833333333 466 856.5 466 c 0
 855.5 466 854.833333333 466.166666667 854.5 466.5 c 0
 851.166666667 465.166666667 842.5 464.5 828.5 464.5 c 2
 812.5 464.5 l 2
 778.833333333 464.5 758.666666667 460.666666667 752 453 c 0
 745 448 742.166666667 436.25 743.5 417.75 c 0
 744.833333333 399.25 748.666666667 387.666666667 755 383 c 0
 757 382.333333333 758.333333333 382 759 382 c 0
 762.333333333 382 769.5 386.666666667 780.5 396 c 0
 791.5 405.333333333 801 411.833333333 809 415.5 c 0
 811.666666667 416.833333333 816.5 417.5 823.5 417.5 c 0
 828.166666667 417.5 839.416666667 416.916666667 857.25 415.75 c 0
 875.083333333 414.583333333 889.5 414 900.5 414 c 0
 915.5 414 928.833333333 414.916666667 940.5 416.75 c 0
 952.166666667 418.583333333 963.5 421.75 974.5 426.25 c 0
 985.5 430.75 993.916666667 437.666666667 999.75 447 c 0
 1005.58333333 456.333333333 1008.33333333 467.666666667 1008 481 c 0
 1007.66666667 494.333333333 1003.83333333 505.5 996.5 514.5 c 0
 989.166666667 523.5 979.083333333 530.25 966.25 534.75 c 0
 953.416666667 539.25 940.25 542.333333333 926.75 544 c 0
 913.25 545.666666667 897.833333333 546.5 880.5 546.5 c 0
 868.166666667 546.5 844.833333333 545.666666667 810.5 544 c 1
 802.5 546.666666667 792.083333333 553.833333333 779.25 565.5 c 0
 766.416666667 577.166666667 757.833333333 584.166666667 753.5 586.5 c 1
751.5 658 m 0
 753.166666667 658 757.833333333 654 765.5 646 c 0
 773.166666667 638 782.583333333 628.666666667 793.75 618 c 0
 804.916666667 607.333333333 815 599.5 824 594.5 c 1
 835.666666667 593.5 852.083333333 592.75 873.25 592.25 c 0
 894.416666667 591.75 912.25 591.25 926.75 590.75 c 0
 941.25 590.25 957.416666667 588.083333333 975.25 584.25 c 0
 993.083333333 580.416666667 1007.41666667 575 1018.25 568 c 0
 1029.08333333 561 1038.33333333 550.25 1046 535.75 c 0
 1053.66666667 521.25 1057.5 503.5 1057.5 482.5 c 0
 1057.5 461.833333333 1055.5 444.5 1051.5 430.5 c 0
 1047.5 416.5 1041.41666667 405.666666667 1033.25 398 c 0
 1025.08333333 390.333333333 1016.08333333 384.5 1006.25 380.5 c 0
 996.416666667 376.5 984.083333333 373.916666667 969.25 372.75 c 0
 954.416666667 371.583333333 940.166666667 370.916666667 926.5 370.75 c 0
 912.833333333 370.583333333 896.5 370 877.5 369 c 0
 858.5 368 841.166666667 366.166666667 825.5 363.5 c 0
 822.833333333 361.833333333 816.833333333 358.25 807.5 352.75 c 0
 798.166666667 347.25 791.916666667 343.5 788.75 341.5 c 0
 785.583333333 339.5 780.75 336.333333333 774.25 332 c 0
 767.75 327.666666667 762.416666667 323.75 758.25 320.25 c 0
 754.083333333 316.75 750 313 746 309 c 1
 745 310 742.333333333 312.333333333 738 316 c 0
 733.666666667 319.666666667 730.916666667 322.083333333 729.75 323.25 c 0
 728.583333333 324.416666667 726.166666667 326.916666667 722.5 330.75 c 0
 718.833333333 334.583333333 716.416666667 337.583333333 715.25 339.75 c 0
 714.083333333 341.916666667 712.166666667 345.416666667 709.5 350.25 c 0
 706.833333333 355.083333333 705.083333333 359.5 704.25 363.5 c 0
 703.416666667 367.5 702.333333333 372.75 701 379.25 c 0
 699.666666667 385.75 698.916666667 392.333333333 698.75 399 c 0
 698.583333333 405.666666667 698.5 413.5 698.5 422.5 c 0
 698.5 431.5 699 441 700 451 c 1
 658.5 465.5 l 1
 612.5 410.5 l 1
 542.5 426.5 l 1
 498 376 l 1
 436 379.5 l 1
 417.5 312.5 l 1
 322 306 l 1
 310 225 l 1
 207.5 203.5 l 1
 206 112 l 1
 133.5 89 l 1
 138 15 l 1
 82 -43.5 l 1
 117.5 -108.5 l 1
 114.5 -179.5 l 1
 61 -181 l 1
 61 -181 l 1
 65.5 -118.5 l 1
 20 -38.5 l 1
 87.5 44.5 l 1
 81.5 125 l 1
 158 160 l 1
 161 253 l 1
 262 273.5 l 1
 279.5 352.5 l 1
 375.5 359.5 l 1
 401 435.5 l 1
 476 435.5 l 1
 524 488 l 1
 595 474 l 1
 639.5 529 l 1
 698.5 513 l 1
 694.5 558 698.333333333 593.416666667 710 619.25 c 0
 721.666666667 645.083333333 735.5 658 751.5 658 c 0
EndSplineSet
EndChar

StartChar: a
Encoding: 97 97 24
Width: 1155
Flags: HW
LayerCount: 2
Fore
SplineSet
369.5 344.5 m 1
 384.5 316.166666667 405.583333333 281.75 432.75 241.25 c 0
 459.916666667 200.75 483.916666667 162.75 504.75 127.25 c 0
 525.583333333 91.75 541.333333333 57 552 23 c 1
 552.666666667 24.3333333333 554.25 26.5833333333 556.75 29.75 c 0
 559.25 32.9166666667 560.916666667 35.25 561.75 36.75 c 0
 562.583333333 38.25 563.75 40.4166666667 565.25 43.25 c 0
 566.75 46.0833333333 567.5 48.5 567.5 50.5 c 0
 567.5 52.5 567.25 54.75 566.75 57.25 c 0
 566.25 59.75 565 62.1666666667 563 64.5 c 0
 498.333333333 178.833333333 433.833333333 272.166666667 369.5 344.5 c 1
 369.5 344.5 l 1
296 772.5 m 1
 273 769.833333333 251.666666667 766.833333333 232 763.5 c 1
 233 763.5 l 2
 245 763.5 254.333333333 758.5 261 748.5 c 0
 261.333333333 744.166666667 259.083333333 740.75 254.25 738.25 c 0
 249.416666667 735.75 243.333333333 734.5 236 734.5 c 0
 228.333333333 734.5 221.916666667 736 216.75 739 c 0
 211.583333333 742 209.166666667 746.333333333 209.5 752 c 1
 213.5 757.666666667 219.333333333 761.333333333 227 763 c 1
 227 763 l 1
 226 763 188.833333333 758 115.5 748 c 1
 126.5 745.666666667 147.75 738.416666667 179.25 726.25 c 0
 210.75 714.083333333 236.166666667 707.5 255.5 706.5 c 1
 255.166666667 699.5 254.583333333 688 253.75 672 c 0
 252.916666667 656 252.333333333 644 252 636 c 0
 251.666666667 628 251.5 616.5 251.5 601.5 c 0
 251.5 586.5 251.916666667 574.666666667 252.75 566 c 0
 253.583333333 557.333333333 255 546.416666667 257 533.25 c 0
 259 520.083333333 261.666666667 509.166666667 265 500.5 c 0
 268.333333333 491.833333333 272.583333333 482 277.75 471 c 0
 282.916666667 460 288.916666667 450.5 295.75 442.5 c 0
 302.583333333 434.5 310.833333333 426.5 320.5 418.5 c 0
 330.166666667 410.5 341 403.333333333 353 397 c 1
 353.5 397 l 1
 341.833333333 418.666666667 336 441 336 464 c 0
 336 484 341.833333333 502.666666667 353.5 520 c 0
 365.166666667 537.333333333 378.833333333 550.833333333 394.5 560.5 c 0
 410.166666667 570.166666667 424.833333333 577.75 438.5 583.25 c 0
 452.166666667 588.75 462.166666667 591.5 468.5 591.5 c 0
 470.5 591.5 471.666666667 591.166666667 472 590.5 c 0
 472.666666667 589.166666667 469.75 586.166666667 463.25 581.5 c 0
 456.75 576.833333333 448.416666667 571 438.25 564 c 0
 428.083333333 557 417.916666667 549.166666667 407.75 540.5 c 0
 397.583333333 531.833333333 388.916666667 521.916666667 381.75 510.75 c 0
 374.583333333 499.583333333 371 488.666666667 371 478 c 0
 371 466.666666667 372 456 374 446 c 0
 381.333333333 405.333333333 406.166666667 370 448.5 340 c 0
 463.833333333 329 495.833333333 310.333333333 544.5 284 c 0
 556.5 277.333333333 583.75 262.583333333 626.25 239.75 c 0
 668.75 216.916666667 698.166666667 201 714.5 192 c 0
 730.833333333 183 757 168.25 793 147.75 c 0
 829 127.25 857.833333333 110.25 879.5 96.75 c 0
 901.166666667 83.25 926.416666667 66.9166666667 955.25 47.75 c 0
 984.083333333 28.5833333333 1010.83333333 9.83333333333 1035.5 -8.5 c 1
 931.5 119.5 l 1
 625.5 493 l 1
 572.166666667 545 502.833333333 587.666666667 417.5 621 c 0
 408.833333333 623.666666667 402.75 630.333333333 399.25 641 c 0
 395.75 651.666666667 393.5 664.416666667 392.5 679.25 c 0
 391.5 694.083333333 390.166666667 703.833333333 388.5 708.5 c 0
 384.833333333 728.166666667 379.25 743.5 371.75 754.5 c 0
 364.25 765.5 351.833333333 771.5 334.5 772.5 c 1
 332.5 754.833333333 325.75 737.333333333 314.25 720 c 0
 302.75 702.666666667 290 690.666666667 276 684 c 1
 268.5 699.5 l 1
 279.5 704.5 287.666666667 714.166666667 293 728.5 c 0
 298.333333333 742.833333333 299.333333333 757.5 296 772.5 c 1
508.5 34 m 1
 502.5 10.3333333333 496.166666667 -12.5 489.5 -34.5 c 0
 474.5 -81.5 481.5 -105 510.5 -105 c 0
 544.5 -105 567.833333333 -70.6666666667 580.5 -2 c 1
 580.5 -2 l 1
 569.5 -15.3333333333 553 -30.8333333333 531 -48.5 c 1
 522.666666667 -9.5 515.166666667 18 508.5 34 c 1
462 288.5 m 1
 466.333333333 282.5 477.416666667 267.083333333 495.25 242.25 c 0
 513.083333333 217.416666667 525.75 199.416666667 533.25 188.25 c 0
 540.75 177.083333333 550.583333333 161.75 562.75 142.25 c 0
 574.916666667 122.75 585 104.666666667 593 88 c 1
 596 90 600 92.75 605 96.25 c 0
 610 99.75 613.5 102.166666667 615.5 103.5 c 2
 685.5 19.5 l 2
 687.5 18.5 689.166666667 18 690.5 18 c 0
 693.833333333 18 696.25 19.8333333333 697.75 23.5 c 0
 699.25 27.1666666667 699.916666667 31.9166666667 699.75 37.75 c 0
 699.583333333 43.5833333333 699.25 49.25 698.75 54.75 c 0
 698.25 60.25 697.583333333 65.8333333333 696.75 71.5 c 0
 695.916666667 77.1666666667 695.5 80.6666666667 695.5 82 c 2
 689 144 l 1
 728.5 96 l 2
 738.166666667 83.6666666667 750 67.1666666667 764 46.5 c 0
 778 25.8333333333 789.916666667 8.16666666667 799.75 -6.5 c 0
 809.583333333 -21.1666666667 822 -37.25 837 -54.75 c 0
 852 -72.25 866.583333333 -86.4166666667 880.75 -97.25 c 0
 894.916666667 -108.083333333 912 -117.5 932 -125.5 c 0
 952 -133.5 973 -137.833333333 995 -138.5 c 0
 1029.66666667 -135.833333333 1053.66666667 -124.333333333 1067 -104 c 1
 1042.33333333 -69.6666666667 1010.16666667 -36.8333333333 970.5 -5.5 c 1
 896.833333333 43.5 820.666666667 90.3333333333 742 135 c 0
 663.333333333 179.666666667 570 230.833333333 462 288.5 c 1
 462 288.5 l 1
312.5 808.5 m 0
 339.166666667 808.5 362 804.833333333 381 797.5 c 0
 392.666666667 791.5 402.333333333 780.333333333 410 764 c 0
 417.666666667 747.666666667 422.833333333 731.166666667 425.5 714.5 c 0
 431.166666667 679.5 435.333333333 658.833333333 438 652.5 c 1
 525 618.166666667 596.166666667 573.666666667 651.5 519 c 1
 702.166666667 463.333333333 775.833333333 373.75 872.5 250.25 c 0
 969.166666667 126.75 1045 35.3333333333 1100 -24 c 0
 1106.66666667 -31 1112.75 -38.4166666667 1118.25 -46.25 c 0
 1123.75 -54.0833333333 1128.58333333 -62.75 1132.75 -72.25 c 0
 1136.91666667 -81.75 1136.91666667 -89.75 1132.75 -96.25 c 0
 1128.58333333 -102.75 1119.66666667 -106.333333333 1106 -107 c 1
 1100.33333333 -128.333333333 1086.75 -144.75 1065.25 -156.25 c 0
 1043.75 -167.75 1020.33333333 -174 995 -175 c 1
 964.333333333 -172 936.083333333 -165 910.25 -154 c 0
 884.416666667 -143 861 -127.916666667 840 -108.75 c 0
 819 -89.5833333333 800.666666667 -69.75 785 -49.25 c 0
 769.333333333 -28.75 752.833333333 -4.16666666667 735.5 24.5 c 1
 731.5 -4.16666666667 717.5 -19.3333333333 693.5 -21 c 0
 678.166666667 -20 659.166666667 -9.5 636.5 10.5 c 1
 635.5 -1.5 633.583333333 -13.6666666667 630.75 -26 c 0
 627.916666667 -38.3333333333 625.416666667 -48 623.25 -55 c 0
 621.083333333 -62 617.583333333 -72.1666666667 612.75 -85.5 c 0
 607.916666667 -98.8333333333 604.833333333 -107.666666667 603.5 -112 c 1
 604.5 -111.666666667 606.333333333 -111.5 609 -111.5 c 0
 623 -111.5 640.5 -114.333333333 661.5 -120 c 0
 682.5 -125.666666667 703.416666667 -134.916666667 724.25 -147.75 c 0
 745.083333333 -160.583333333 757.666666667 -175 762 -191 c 1
 187 -186.5 l 1
 193 -181.5 201.833333333 -172.5 213.5 -159.5 c 0
 225.166666667 -146.5 235.583333333 -136.25 244.75 -128.75 c 0
 253.916666667 -121.25 262.5 -117.5 270.5 -117.5 c 0
 270.833333333 -117.5 271.333333333 -117.583333333 272 -117.75 c 0
 272.666666667 -117.916666667 273.166666667 -118 273.5 -118 c 0
 286.5 -119 300 -119.5 314 -119.5 c 0
 348.333333333 -119.5 382 -116.666666667 415 -111 c 1
 423 -87.6666666667 433.583333333 -49.75 446.75 2.75 c 0
 459.916666667 55.25 468 91 471 110 c 1
 460 128.666666667 443.75 154.166666667 422.25 186.5 c 0
 400.75 218.833333333 380.75 250.333333333 362.25 281 c 0
 343.75 311.666666667 327.666666667 342.166666667 314 372.5 c 1
 279.666666667 400.5 253.333333333 432.75 235 469.25 c 0
 216.666666667 505.75 209.5 544.166666667 213.5 584.5 c 0
 213.833333333 588.166666667 214.916666667 601.333333333 216.75 624 c 0
 218.583333333 646.666666667 219.5 663.333333333 219.5 674 c 1
 206.5 677.333333333 190.333333333 682.666666667 171 690 c 0
 151.666666667 697.333333333 134.166666667 703.166666667 118.5 707.5 c 0
 102.833333333 711.833333333 87.3333333333 714 72 714 c 0
 55 714 37.6666666667 711 20 705 c 1
 20.6666666667 706.666666667 22.6666666667 711.333333333 26 719 c 0
 29.3333333333 726.666666667 31.5833333333 731.666666667 32.75 734 c 0
 33.9166666667 736.333333333 36.25 740.5 39.75 746.5 c 0
 43.25 752.5 46.3333333333 756.833333333 49 759.5 c 0
 51.6666666667 762.166666667 55.25 765.25 59.75 768.75 c 0
 64.25 772.25 69 775.166666667 74 777.5 c 0
 88 782.5 109.333333333 785.416666667 138 786.25 c 0
 166.666666667 787.083333333 188.5 791.166666667 203.5 798.5 c 0
 210.166666667 799.166666667 221.25 800.5 236.75 802.5 c 0
 252.25 804.5 266 806 278 807 c 0
 290 808 301.5 808.5 312.5 808.5 c 0
EndSplineSet
EndChar

StartChar: o
Encoding: 111 111 25
Width: 1294
Flags: HW
LayerCount: 2
Fore
SplineSet
1207 484.5 m 4
 1189.66699219 484.5 1180.5 479 1179.5 468 c 6
 1153.5 246 l 5
 1233.5 246 l 5
 1233.5 457 l 6
 1233.5 475.333007812 1224.66699219 484.5 1207 484.5 c 4
1208.5 518 m 4
 1251.5 518 1273.5 497.666992188 1274.5 457 c 6
 1274.5 152.5 l 5
 1085 155 l 5
 409 151.5 l 5
 290.5 139 l 5
 112.5 139.666992188 22.3330078125 153 20 179 c 4
 20 207.333007812 32 221.5 56 221.5 c 5
 105 206.5 161.666992188 198.166992188 226 196.5 c 4
 230.333007812 196.166992188 234.666992188 196 239 196 c 4
 295.333007812 196 331.666992188 206.166992188 348 226.5 c 5
 338.666992188 237.833007812 327 243.5 313 243.5 c 4
 309 243.833007812 304.666992188 244 300 244 c 4
 274 244 236.833007812 240.166992188 188.5 232.5 c 5
 160.166992188 232.5 146 241.666992188 146 260 c 4
 146 273.333007812 151 280 161 280 c 4
 175 280 217.333007812 286.666992188 288 300 c 5
 301.333007812 299 314.333007812 298.166992188 327 297.5 c 4
 361.666992188 297.5 401.5 273.833007812 446.5 226.5 c 5
 506.5 224 l 5
 1085 245 l 6
 1105 245.666992188 1123.66699219 324.666992188 1141 482 c 4
 1143.66699219 506 1166.16699219 518 1208.5 518 c 4
EndSplineSet
EndChar

StartChar: e
Encoding: 101 101 26
Width: 554
Flags: HW
LayerCount: 2
Fore
SplineSet
261.5 502 m 5
 335.5 502 l 5
 534.5 120 l 5
 459.5 120 l 5
 260.5 501 l 5
 261.5 502 l 5
95 501 m 5
 294 119.5 l 5
 219 119 l 5
 20 500.5 l 5
 95 501 l 5
EndSplineSet
EndChar

StartChar: i
Encoding: 105 105 27
Width: 270
Flags: HW
LayerCount: 2
Fore
SplineSet
156 753 m 0
 150.333333333 753 146 751.166666667 143 747.5 c 2
 73 261.5 l 1
 145 218.833333333 189.5 178.166666667 206.5 139.5 c 1
 206.5 139.5 l 1
 209 727 l 1
 205.333333333 735.333333333 198.416666667 741.75 188.25 746.25 c 0
 178.083333333 750.75 167.333333333 753 156 753 c 0
206.5 139.5 m 1
 206.5 139.5 l 1
 206.5 139.5 l 1
 206.5 139.5 l 1
 206.5 139.5 l 1
146 807.5 m 0
 199.666666667 807.5 234.5 786.166666667 250.5 743.5 c 1
 250.5 -190 l 1
 187 -191 l 1
 186 36 l 2
 187 50 183.083333333 65.3333333333 174.25 82 c 0
 165.416666667 98.6666666667 155.25 113.333333333 143.75 126 c 0
 132.25 138.666666667 117.25 152.75 98.75 168.25 c 0
 80.25 183.75 66.0833333333 195 56.25 202 c 0
 46.4166666667 209 34.3333333333 217.333333333 20 227 c 1
 106.5 803 l 1
 118.5 806 131.666666667 807.5 146 807.5 c 0
EndSplineSet
EndChar

StartChar: u
Encoding: 117 117 28
Width: 830
Flags: HW
LayerCount: 2
Fore
SplineSet
165.5 773 m 0
 180.166666667 773 187.5 765.666666667 187.5 751 c 0
 187.5 736.333333333 180.166666667 728.666666667 165.5 728 c 0
 151.833333333 728 145 734.833333333 145 748.5 c 0
 145 764.833333333 151.833333333 773 165.5 773 c 0
85.5 757 m 1
 68.5 752 52.6666666667 741.833333333 38 726.5 c 1
 85.5 735 l 1
 85.5 757 l 1
88 728 m 1
 56.5 720.5 l 1
 65.1666666667 710.166666667 78.8333333333 701.666666667 97.5 695 c 1
 109.833333333 702.333333333 106.666666667 713.333333333 88 728 c 1
173 783.5 m 0
 150.333333333 783.5 128.5 775 107.5 758 c 1
 107.5 737.5 l 1
 126.833333333 724.5 134 710.833333333 129 696.5 c 0
 124.333333333 681.833333333 127.833333333 668.166666667 139.5 655.5 c 0
 151.166666667 643.166666667 156.666666667 623.666666667 156 597 c 0
 155 570.333333333 160 541.333333333 171 510 c 0
 182 479 207.333333333 428.166666667 247 357.5 c 0
 286.666666667 286.5 315.5 231 333.5 191 c 0
 351.833333333 151 363.333333333 113.666666667 368 79 c 0
 369 63 370.666666667 55 373 55 c 0
 375.333333333 55 378.5 63.8333333333 382.5 81.5 c 1
 382.5 127.5 l 1
 453.166666667 102.5 488.5 76.1666666667 488.5 48.5 c 0
 488.5 34.5 489.5 27.5 491.5 27.5 c 0
 493.5 27.5 496.5 33.6666666667 500.5 46 c 0
 508.5 72 499.166666667 96.6666666667 472.5 120 c 1
 472.5 120 l 1
 498.5 106.333333333 531.333333333 99.5 571 99.5 c 2
 577.5 99.5 l 2
 619.833333333 100.166666667 663.666666667 111.5 709 133.5 c 1
 719.333333333 126.5 729 123 738 123 c 0
 740.666666667 123 743.166666667 123.333333333 745.5 124 c 0
 756.833333333 126.333333333 762.833333333 133.166666667 763.5 144.5 c 0
 762.833333333 156.5 743 175.5 704 201.5 c 1
 558.666666667 386.5 470.166666667 484.333333333 438.5 495 c 1
 437.833333333 479.666666667 424.833333333 468.666666667 399.5 462 c 1
 467.5 419.333333333 484.5 387.666666667 450.5 367 c 0
 427.5 353 408 346 392 346 c 0
 384.333333333 346 377.666666667 347.5 372 350.5 c 0
 313.666666667 393.5 274.5 429 254.5 457 c 0
 234.833333333 484.666666667 225.666666667 510.333333333 227 534 c 0
 228 557.333333333 240.333333333 575 264 587 c 0
 273.333333333 592 279.333333333 594.5 282 594.5 c 0
 285.333333333 594.5 281.333333333 589.166666667 270 578.5 c 0
 250.666666667 560.833333333 242.166666667 541.5 244.5 520.5 c 0
 246.833333333 499.5 268.666666667 468.666666667 310 428 c 0
 341 397.666666667 368 382.5 391 382.5 c 0
 398.666666667 382.5 405.833333333 384.166666667 412.5 387.5 c 0
 439.5 400.833333333 436.833333333 417.666666667 404.5 438 c 0
 372.166666667 458.333333333 354.333333333 475.5 351 489.5 c 0
 349 498.5 349.5 503 352.5 503 c 0
 354.166666667 503 356.833333333 501.5 360.5 498.5 c 0
 369.5 490.5 382.166666667 486.166666667 398.5 485.5 c 0
 398.833333333 485.166666667 399.333333333 485 400 485 c 0
 415 485 421 498.5 418 525.5 c 1
 398.666666667 566.5 359.333333333 593.166666667 300 605.5 c 1
 298.666666667 666.166666667 286.666666667 711 264 740 c 0
 241.333333333 769 211 783.5 173 783.5 c 0
403.5 85 m 1
 403.5 60.5 l 1
 341.5 -128.5 l 1
 341.5 -131 l 1
 390 -131 l 2
 408.666666667 -131 419.5 -122.166666667 422.5 -104.5 c 2
 463 45 l 1
 463 60.3333333333 443.166666667 73.6666666667 403.5 85 c 1
177 808 m 2
 239.333333333 808 281 791 302 757 c 0
 323.333333333 722.333333333 334.5 681.166666667 335.5 633.5 c 1
 376.833333333 613.166666667 405.333333333 596.166666667 421 582.5 c 0
 436.666666667 568.5 450.166666667 549.833333333 461.5 526.5 c 1
 495.5 508.833333333 558.166666667 443.666666667 649.5 331 c 0
 694.166666667 272 741.166666667 217.833333333 790.5 168.5 c 1
 813.166666667 137.833333333 816.333333333 115.166666667 800 100.5 c 0
 789.333333333 90.8333333333 775 86 757 86 c 0
 748 86 738 87.3333333333 727 90 c 1
 669 67.3333333333 600.666666667 54.6666666667 522 52 c 1
 483.5 -111.5 l 1
 506.166666667 -131.833333333 520.333333333 -152.833333333 526 -174.5 c 0
 526 -182.833333333 522.666666667 -188.166666667 516 -190.5 c 0
 515 -190.833333333 514 -191 513 -191 c 0
 508 -191 504.166666667 -185.5 501.5 -174.5 c 0
 499.833333333 -160.833333333 489.333333333 -150 470 -142 c 1
 467.666666667 -153.333333333 456.333333333 -167 436 -183 c 1
 113.5 -183 l 2
 103.833333333 -183 99 -177.833333333 99 -167.5 c 0
 99 -149.5 135.333333333 -139.333333333 208 -137 c 0
 256.666666667 -133.666666667 281 -129.166666667 281 -123.5 c 0
 316.333333333 -24.8333333333 334 38.5 334 66.5 c 0
 334 85.1666666667 314.666666667 135 276 216 c 0
 197.666666667 369.666666667 151.5 464 137.5 499 c 0
 123.833333333 534.333333333 116.666666667 578.666666667 116 632 c 1
 103 652.333333333 95.3333333333 668.166666667 93 679.5 c 1
 71 685.166666667 46.6666666667 700 20 724 c 1
 39.3333333333 747.666666667 58.3333333333 762.666666667 77 769 c 1
 109.333333333 795 141.333333333 808 173 808 c 2
 177 808 l 2
EndSplineSet
EndChar

StartChar: y
Encoding: 121 121 29
Width: 378
Flags: HW
LayerCount: 2
Fore
SplineSet
177.607421875 519 m 4
 181.607421875 519 187.607421875 518.666992188 195.607421875 518 c 4
 232.274414062 515.666992188 263.274414062 499.916992188 288.607421875 470.75 c 4
 313.940429688 441.583007812 325.274414062 408.666992188 322.607421875 372 c 4
 322.607421875 340.666992188 310.774414062 313.75 287.107421875 291.25 c 4
 263.440429688 268.75 235.940429688 257.5 204.607421875 257.5 c 4
 195.607421875 257.5 186.274414062 259 176.607421875 262 c 4
 149.274414062 269 128.607421875 285.583007812 114.607421875 311.75 c 4
 100.607421875 337.916992188 98.9404296875 364 109.607421875 390 c 4
 112.940429688 401.333007812 117.940429688 407 124.607421875 407 c 4
 132.274414062 407 143.274414062 399.5 157.607421875 384.5 c 5
 148.274414062 373.166992188 145.607421875 359.916992188 149.607421875 344.75 c 4
 153.607421875 329.583007812 161.107421875 319 172.107421875 313 c 4
 181.440429688 306 192.607421875 302.5 205.607421875 302.5 c 4
 217.274414062 302.5 228.690429688 305.5 239.857421875 311.5 c 4
 251.024414062 317.5 259.940429688 325.333007812 266.607421875 335 c 4
 280.607421875 355.666992188 283.774414062 379.083007812 276.107421875 405.25 c 4
 268.440429688 431.416992188 254.440429688 449.5 234.107421875 459.5 c 5
 219.440429688 469.833007812 202.107421875 475 182.107421875 475 c 4
 156.440429688 475 132.940429688 467 111.607421875 451 c 4
 98.2744140625 441.666992188 87.107421875 428.166992188 78.107421875 410.5 c 4
 69.107421875 392.833007812 64.9404296875 375.166992188 65.607421875 357.5 c 4
 64.2744140625 332.5 69.607421875 310.583007812 81.607421875 291.75 c 4
 93.607421875 272.916992188 111.107421875 254.166992188 134.107421875 235.5 c 5
 160.440429688 218.166992188 185.940429688 203 210.607421875 190 c 4
 235.274414062 177 284.607421875 153.166992188 358.607421875 118.5 c 5
 337.607421875 79 l 5
 305.607421875 95.3330078125 277.774414062 108.666992188 254.107421875 119 c 4
 230.440429688 129.333007812 210.690429688 138.75 194.857421875 147.25 c 4
 179.024414062 155.75 151.440429688 172 112.107421875 196 c 4
 98.7744140625 207 88.0244140625 216.416992188 79.857421875 224.25 c 4
 71.6904296875 232.083007812 62.9404296875 241.666992188 53.607421875 253 c 4
 44.2744140625 264.333007812 37.0244140625 276.583007812 31.857421875 289.75 c 4
 26.6904296875 302.916992188 23.4404296875 317.166992188 22.107421875 332.5 c 4
 17.4404296875 360.833007812 20.5244140625 388.75 31.357421875 416.25 c 4
 42.1904296875 443.75 59.0244140625 466.833007812 81.857421875 485.5 c 4
 104.690429688 504.166992188 130.440429688 515 159.107421875 518 c 4
 167.774414062 518.666992188 173.940429688 519 177.607421875 519 c 4
EndSplineSet
EndChar
